<svg width="1695" height="1171" viewBox="0 0 1695 1171" fill="none" xmlns="http://www.w3.org/2000/svg">
<g id="context">
<g id="Group 1" opacity="0.6">
<path id="Vector" d="M962.844 585.203C962.844 648.63 911.427 700.047 848 700.047C784.574 700.047 733.156 648.63 733.156 585.203C733.156 521.777 784.574 470.359 848 470.359C911.427 470.359 962.844 521.777 962.844 585.203Z" fill="#61DAFB" stroke="black" stroke-width="9"/>
<g id="Vector_2">
<mask id="path-2-inside-1" fill="white">
<path d="M1301.3 388.391C1278.27 380.016 1254.19 371.641 1229.06 364.313C1235.34 339.188 1240.58 314.062 1244.77 289.984C1266.75 151.797 1242.67 54.4375 1175.67 16.75C1155.78 5.23437 1133.8 0 1108.67 0C1035.39 0 942.219 54.4375 848 145.516C753.781 54.4375 660.609 0 587.328 0C562.203 0 540.219 5.23437 520.328 16.75C453.328 55.4844 429.25 152.844 451.234 289.984C455.422 314.062 460.656 339.188 466.938 364.313C441.813 371.641 417.734 378.969 394.703 388.391C263.844 438.641 192.656 507.734 192.656 585.203C192.656 662.672 264.891 731.766 394.703 782.016C417.734 790.391 441.813 798.766 466.938 806.094C460.656 831.219 455.422 856.344 451.234 880.422C429.25 1018.61 453.328 1115.97 520.328 1153.66C540.219 1165.17 562.203 1170.41 587.328 1170.41C661.656 1170.41 754.828 1115.97 848 1024.89C942.219 1115.97 1035.39 1170.41 1108.67 1170.41C1133.8 1170.41 1155.78 1165.17 1175.67 1153.66C1242.67 1114.92 1266.75 1017.56 1244.77 880.422C1240.58 856.344 1235.34 831.219 1229.06 806.094C1254.19 798.766 1278.27 791.438 1301.3 782.016C1432.16 731.766 1503.34 662.672 1503.34 585.203C1503.34 507.734 1432.16 438.641 1301.3 388.391ZM1146.36 69.0937C1189.28 94.2187 1203.94 171.688 1186.14 281.609C1183 303.594 1177.77 326.625 1171.48 350.703C1117.05 338.141 1059.47 329.766 998.75 324.531C963.156 274.281 926.516 229.266 889.875 188.438C967.344 112.016 1045.86 59.6719 1109.72 59.6719C1123.33 59.6719 1135.89 62.8125 1146.36 69.0937V69.0937ZM1029.11 689.891C1010.27 723.391 988.281 756.891 965.25 790.391C926.516 793.531 887.781 794.578 848 794.578C807.172 794.578 768.438 793.531 730.75 790.391C707.719 756.891 686.781 723.391 667.938 689.891C648.047 655.344 629.203 619.75 612.453 585.203C629.203 550.656 648.047 515.063 667.938 480.516C686.781 447.016 708.766 413.516 731.797 380.016C770.531 376.875 809.266 375.828 849.047 375.828C889.875 375.828 928.609 376.875 966.297 380.016C989.328 413.516 1010.27 447.016 1029.11 480.516C1049 515.063 1067.84 550.656 1084.59 585.203C1066.8 619.75 1049 654.297 1029.11 689.891ZM1116 655.344C1131.7 691.984 1144.27 727.578 1155.78 763.172C1120.19 771.547 1082.5 777.828 1042.72 783.063C1055.28 763.172 1068.89 742.234 1080.41 720.25C1092.97 698.266 1104.48 676.281 1116 655.344ZM848 939.047C822.875 911.828 798.797 882.516 775.766 852.156C799.844 853.203 823.922 854.25 848 854.25C872.078 854.25 896.156 853.203 920.234 852.156C897.203 882.516 873.125 911.828 848 939.047ZM653.281 782.016C613.5 776.781 575.813 770.5 540.219 762.125C551.734 727.578 564.297 690.938 580 654.297C591.516 675.234 603.031 697.219 615.594 718.156C628.156 741.188 640.719 761.078 653.281 782.016V782.016ZM580 515.062C564.297 478.422 551.734 442.828 540.219 407.234C575.813 398.859 613.5 392.578 653.281 387.344C640.719 407.234 627.109 428.172 615.594 450.156C603.031 472.141 591.516 494.125 580 515.062V515.062ZM848 231.359C873.125 258.578 897.203 287.891 920.234 318.25C896.156 317.203 872.078 316.156 848 316.156C823.922 316.156 799.844 317.203 775.766 318.25C798.797 287.891 822.875 258.578 848 231.359V231.359ZM1080.41 451.203L1042.72 388.391C1082.5 393.625 1120.19 399.906 1155.78 408.281C1144.27 442.828 1131.7 479.469 1116 516.109C1104.48 494.125 1092.97 472.141 1080.41 451.203V451.203ZM509.859 281.609C492.063 171.688 506.719 94.2187 549.641 69.0937C560.109 62.8125 572.672 59.6719 586.281 59.6719C649.094 59.6719 727.609 110.969 806.125 188.438C769.484 228.219 732.844 274.281 697.25 324.531C636.531 329.766 578.953 339.188 524.516 350.703C518.234 326.625 514.047 303.594 509.859 281.609ZM251.281 585.203C251.281 536 310.953 483.656 415.641 444.922C436.578 436.547 459.609 429.219 482.641 422.938C499.391 475.281 520.328 530.766 545.453 586.25C520.328 641.734 498.344 696.172 482.641 748.516C338.172 706.641 251.281 643.828 251.281 585.203V585.203ZM549.641 1101.31C506.719 1076.19 492.063 998.719 509.859 888.797C513 866.813 518.234 843.781 524.516 819.703C578.953 832.266 636.531 840.641 697.25 845.875C732.844 896.125 769.484 941.141 806.125 981.969C728.656 1058.39 650.141 1110.73 586.281 1110.73C572.672 1110.73 560.109 1107.59 549.641 1101.31ZM1186.14 888.797C1203.94 998.719 1189.28 1076.19 1146.36 1101.31C1135.89 1107.59 1123.33 1110.73 1109.72 1110.73C1046.91 1110.73 968.391 1059.44 889.875 981.969C926.516 942.188 963.156 896.125 998.75 845.875C1059.47 840.641 1117.05 831.219 1171.48 819.703C1177.77 843.781 1181.95 866.813 1186.14 888.797V888.797ZM1280.36 725.484C1259.42 733.859 1236.39 741.187 1213.36 747.469C1196.61 695.125 1175.67 639.641 1150.55 584.156C1175.67 528.672 1197.66 474.234 1213.36 421.891C1357.83 463.766 1444.72 526.578 1444.72 585.203C1444.72 634.406 1384 686.75 1280.36 725.484V725.484Z"/>
</mask>
<path d="M1301.3 388.391C1278.27 380.016 1254.19 371.641 1229.06 364.313C1235.34 339.188 1240.58 314.062 1244.77 289.984C1266.75 151.797 1242.67 54.4375 1175.67 16.75C1155.78 5.23437 1133.8 0 1108.67 0C1035.39 0 942.219 54.4375 848 145.516C753.781 54.4375 660.609 0 587.328 0C562.203 0 540.219 5.23437 520.328 16.75C453.328 55.4844 429.25 152.844 451.234 289.984C455.422 314.062 460.656 339.188 466.938 364.313C441.813 371.641 417.734 378.969 394.703 388.391C263.844 438.641 192.656 507.734 192.656 585.203C192.656 662.672 264.891 731.766 394.703 782.016C417.734 790.391 441.813 798.766 466.938 806.094C460.656 831.219 455.422 856.344 451.234 880.422C429.25 1018.61 453.328 1115.97 520.328 1153.66C540.219 1165.17 562.203 1170.41 587.328 1170.41C661.656 1170.41 754.828 1115.97 848 1024.89C942.219 1115.97 1035.39 1170.41 1108.67 1170.41C1133.8 1170.41 1155.78 1165.17 1175.67 1153.66C1242.67 1114.92 1266.75 1017.56 1244.77 880.422C1240.58 856.344 1235.34 831.219 1229.06 806.094C1254.19 798.766 1278.27 791.438 1301.3 782.016C1432.16 731.766 1503.34 662.672 1503.34 585.203C1503.34 507.734 1432.16 438.641 1301.3 388.391ZM1146.36 69.0937C1189.28 94.2187 1203.94 171.688 1186.14 281.609C1183 303.594 1177.77 326.625 1171.48 350.703C1117.05 338.141 1059.47 329.766 998.75 324.531C963.156 274.281 926.516 229.266 889.875 188.438C967.344 112.016 1045.86 59.6719 1109.72 59.6719C1123.33 59.6719 1135.89 62.8125 1146.36 69.0937V69.0937ZM1029.11 689.891C1010.27 723.391 988.281 756.891 965.25 790.391C926.516 793.531 887.781 794.578 848 794.578C807.172 794.578 768.438 793.531 730.75 790.391C707.719 756.891 686.781 723.391 667.938 689.891C648.047 655.344 629.203 619.75 612.453 585.203C629.203 550.656 648.047 515.063 667.938 480.516C686.781 447.016 708.766 413.516 731.797 380.016C770.531 376.875 809.266 375.828 849.047 375.828C889.875 375.828 928.609 376.875 966.297 380.016C989.328 413.516 1010.27 447.016 1029.11 480.516C1049 515.063 1067.84 550.656 1084.59 585.203C1066.8 619.75 1049 654.297 1029.11 689.891ZM1116 655.344C1131.7 691.984 1144.27 727.578 1155.78 763.172C1120.19 771.547 1082.5 777.828 1042.72 783.063C1055.28 763.172 1068.89 742.234 1080.41 720.25C1092.97 698.266 1104.48 676.281 1116 655.344ZM848 939.047C822.875 911.828 798.797 882.516 775.766 852.156C799.844 853.203 823.922 854.25 848 854.25C872.078 854.25 896.156 853.203 920.234 852.156C897.203 882.516 873.125 911.828 848 939.047ZM653.281 782.016C613.5 776.781 575.813 770.5 540.219 762.125C551.734 727.578 564.297 690.938 580 654.297C591.516 675.234 603.031 697.219 615.594 718.156C628.156 741.188 640.719 761.078 653.281 782.016V782.016ZM580 515.062C564.297 478.422 551.734 442.828 540.219 407.234C575.813 398.859 613.5 392.578 653.281 387.344C640.719 407.234 627.109 428.172 615.594 450.156C603.031 472.141 591.516 494.125 580 515.062V515.062ZM848 231.359C873.125 258.578 897.203 287.891 920.234 318.25C896.156 317.203 872.078 316.156 848 316.156C823.922 316.156 799.844 317.203 775.766 318.25C798.797 287.891 822.875 258.578 848 231.359V231.359ZM1080.41 451.203L1042.72 388.391C1082.5 393.625 1120.19 399.906 1155.78 408.281C1144.27 442.828 1131.7 479.469 1116 516.109C1104.48 494.125 1092.97 472.141 1080.41 451.203V451.203ZM509.859 281.609C492.063 171.688 506.719 94.2187 549.641 69.0937C560.109 62.8125 572.672 59.6719 586.281 59.6719C649.094 59.6719 727.609 110.969 806.125 188.438C769.484 228.219 732.844 274.281 697.25 324.531C636.531 329.766 578.953 339.188 524.516 350.703C518.234 326.625 514.047 303.594 509.859 281.609ZM251.281 585.203C251.281 536 310.953 483.656 415.641 444.922C436.578 436.547 459.609 429.219 482.641 422.938C499.391 475.281 520.328 530.766 545.453 586.25C520.328 641.734 498.344 696.172 482.641 748.516C338.172 706.641 251.281 643.828 251.281 585.203V585.203ZM549.641 1101.31C506.719 1076.19 492.063 998.719 509.859 888.797C513 866.813 518.234 843.781 524.516 819.703C578.953 832.266 636.531 840.641 697.25 845.875C732.844 896.125 769.484 941.141 806.125 981.969C728.656 1058.39 650.141 1110.73 586.281 1110.73C572.672 1110.73 560.109 1107.59 549.641 1101.31ZM1186.14 888.797C1203.94 998.719 1189.28 1076.19 1146.36 1101.31C1135.89 1107.59 1123.33 1110.73 1109.72 1110.73C1046.91 1110.73 968.391 1059.44 889.875 981.969C926.516 942.188 963.156 896.125 998.75 845.875C1059.47 840.641 1117.05 831.219 1171.48 819.703C1177.77 843.781 1181.95 866.813 1186.14 888.797V888.797ZM1280.36 725.484C1259.42 733.859 1236.39 741.187 1213.36 747.469C1196.61 695.125 1175.67 639.641 1150.55 584.156C1175.67 528.672 1197.66 474.234 1213.36 421.891C1357.83 463.766 1444.72 526.578 1444.72 585.203C1444.72 634.406 1384 686.75 1280.36 725.484V725.484Z" fill="#61DAFB" stroke="black" stroke-width="18" mask="url(#path-2-inside-1)"/>
</g>
</g>
<path id="CONTEXT" d="M220.2 700.33C165.639 705.223 120.376 707.67 84.41 707.67C60.4327 707.67 42.8167 702.043 31.562 690.788C20.3073 679.533 14.68 661.917 14.68 637.94V520.5C14.68 494.81 20.4297 476.215 31.929 464.716C43.673 452.972 62.39 447.1 88.08 447.1H220.2V498.48H102.76C88.08 498.48 80.74 505.82 80.74 520.5V637.94C80.74 643.567 82.3303 648.094 85.511 651.519C88.9363 654.7 93.218 656.29 98.356 656.29C103.494 656.29 109.121 656.29 115.238 656.29C121.355 656.045 127.716 655.801 134.322 655.556C140.928 655.311 147.534 655.067 154.14 654.822C160.991 654.577 169.676 654.088 180.197 653.354C190.962 652.62 204.297 651.764 220.2 650.785V700.33ZM414.753 516.83C414.753 502.15 407.413 494.81 392.733 494.81H330.343C315.663 494.81 308.323 502.15 308.323 516.83V634.27C308.323 648.95 315.663 656.29 330.343 656.29H392.733C407.413 656.29 414.753 648.95 414.753 634.27V516.83ZM480.813 634.27C480.813 659.96 474.941 678.677 463.197 690.421C451.698 701.92 433.103 707.67 407.413 707.67H315.663C289.973 707.67 271.256 701.92 259.512 690.421C248.013 678.677 242.263 659.96 242.263 634.27V516.83C242.263 491.14 248.013 472.545 259.512 461.046C271.256 449.302 289.973 443.43 315.663 443.43H407.413C433.103 443.43 451.698 449.302 463.197 461.046C474.941 472.545 480.813 491.14 480.813 516.83V634.27ZM741.555 704H671.825L583.745 549.86V704H517.685V447.1H587.415L675.495 601.24V447.1H741.555V704ZM910.547 704H844.487V498.48H767.417V447.1H987.617V498.48H910.547V704ZM1217.04 704H1013.35V447.1H1217.04V498.48H1079.41V548.025H1187.68V599.405H1079.41V652.62H1217.04V704ZM1394.94 447.1H1468.34L1385.77 575.55L1470.18 704H1396.78L1345.4 623.26L1294.02 704H1220.62L1305.03 575.55L1222.45 447.1H1295.49L1345.4 527.84L1394.94 447.1ZM1613.37 704H1547.31V498.48H1470.24V447.1H1690.44V498.48H1613.37V704Z" fill="black"/>
</g>
</svg>
