<svg width="865" height="865" viewBox="0 0 865 865" fill="none" xmlns="http://www.w3.org/2000/svg">
<g id="passport">
<path id="Vector" d="M2.70312 0H0V2.70312H2.70312V0Z" fill="black"/>
<g id="Group">
<path id="Vector_2" d="M413.578 0C222.413 0 67.5781 154.835 67.5781 346H240.578C240.578 250.504 318.082 173 413.578 173V0Z" fill="#D6FF00"/>
<path id="Vector_3" d="M759.578 346C759.578 154.835 604.743 0 413.578 0V173C509.074 173 586.578 250.504 586.578 346H759.578Z" fill="#34E27A"/>
<path id="Vector_4" d="M413.578 692C604.743 692 759.578 537.165 759.578 346H586.578C586.578 441.496 509.074 519 413.578 519V692Z" fill="#00B9F1"/>
<path id="Vector_5" d="M240.578 692V346H67.5781V865H413.578V692H240.578Z" fill="white"/>
</g>
</g>
</svg>
