<svg width="600" height="600" viewBox="0 0 600 600" fill="none" xmlns="http://www.w3.org/2000/svg">
<g id="react native">
<rect id="Rectangle 7" width="600" height="600" rx="42" fill="#20232A"/>
<path id="Vector" d="M545.3 300.5C545.3 268 504.6 237.2 442.2 218.1C456.6 154.5 450.2 103.9 422 87.7C415.5 83.9 407.9 82.1 399.6 82.1V104.4C404.2 104.4 407.9 105.3 411 107C424.6 114.8 430.5 144.5 425.9 182.7C424.8 192.1 423 202 420.8 212.1C401.2 207.3 379.8 203.6 357.3 201.2C343.8 182.7 329.8 165.9 315.7 151.2C348.3 120.9 378.9 104.3 399.7 104.3V82C372.2 82 336.2 101.6 299.8 135.6C263.4 101.8 227.4 82.4 199.9 82.4V104.7C220.6 104.7 251.3 121.2 283.9 151.3C269.9 166 255.9 182.7 242.6 201.2C220 203.6 198.6 207.3 179 212.2C176.7 202.2 175 192.5 173.8 183.2C169.1 145 174.9 115.3 188.4 107.4C191.4 105.6 195.3 104.8 199.9 104.8V82.5C191.5 82.5 183.9 84.3 177.3 88.1C149.2 104.3 142.9 154.8 157.4 218.2C95.2 237.4 54.7 268.1 54.7 300.5C54.7 333 95.4 363.8 157.8 382.9C143.4 446.5 149.8 497.1 178 513.3C184.5 517.1 192.1 518.9 200.5 518.9C228 518.9 264 499.3 300.4 465.3C336.8 499.1 372.8 518.5 400.3 518.5C408.7 518.5 416.3 516.7 422.9 512.9C451 496.7 457.3 446.2 442.8 382.8C504.8 363.7 545.3 332.9 545.3 300.5V300.5ZM415.1 233.8C411.4 246.7 406.8 260 401.6 273.3C397.5 265.3 393.2 257.3 388.5 249.3C383.9 241.3 379 233.5 374.1 225.9C388.3 228 402 230.6 415.1 233.8ZM369.3 340.3C361.5 353.8 353.5 366.6 345.2 378.5C330.3 379.8 315.2 380.5 300 380.5C284.9 380.5 269.8 379.8 255 378.6C246.7 366.7 238.6 354 230.8 340.6C223.2 327.5 216.3 314.2 210 300.8C216.2 287.4 223.2 274 230.7 260.9C238.5 247.4 246.5 234.6 254.8 222.7C269.7 221.4 284.8 220.7 300 220.7C315.1 220.7 330.2 221.4 345 222.6C353.3 234.5 361.4 247.2 369.2 260.6C376.8 273.7 383.7 287 390 300.4C383.7 313.8 376.8 327.2 369.3 340.3ZM401.6 327.3C407 340.7 411.6 354.1 415.4 367.1C402.3 370.3 388.5 373 374.2 375.1C379.1 367.4 384 359.5 388.6 351.4C393.2 343.4 397.5 335.3 401.6 327.3ZM300.2 434C290.9 424.4 281.6 413.7 272.4 402C281.4 402.4 290.6 402.7 299.9 402.7C309.3 402.7 318.6 402.5 327.7 402C318.7 413.7 309.4 424.4 300.2 434ZM225.8 375.1C211.6 373 197.9 370.4 184.8 367.2C188.5 354.3 193.1 341 198.3 327.7C202.4 335.7 206.7 343.7 211.4 351.7C216.1 359.7 220.9 367.5 225.8 375.1ZM299.7 167C309 176.6 318.3 187.3 327.5 199C318.5 198.6 309.3 198.3 300 198.3C290.6 198.3 281.3 198.5 272.2 199C281.2 187.3 290.5 176.6 299.7 167ZM225.7 225.9C220.8 233.6 215.9 241.5 211.3 249.6C206.7 257.6 202.4 265.6 198.3 273.6C192.9 260.2 188.3 246.8 184.5 233.8C197.6 230.7 211.4 228 225.7 225.9ZM135.2 351.1C99.8 336 76.9 316.2 76.9 300.5C76.9 284.8 99.8 264.9 135.2 249.9C143.8 246.2 153.2 242.9 162.9 239.8C168.6 259.4 176.1 279.8 185.4 300.7C176.2 321.5 168.8 341.8 163.2 361.3C153.3 358.2 143.9 354.8 135.2 351.1ZM189 494C175.4 486.2 169.5 456.5 174.1 418.3C175.2 408.9 177 399 179.2 388.9C198.8 393.7 220.2 397.4 242.7 399.8C256.2 418.3 270.2 435.1 284.3 449.8C251.7 480.1 221.1 496.7 200.3 496.7C195.8 496.6 192 495.7 189 494V494ZM426.2 417.8C430.9 456 425.1 485.7 411.6 493.6C408.6 495.4 404.7 496.2 400.1 496.2C379.4 496.2 348.7 479.7 316.1 449.6C330.1 434.9 344.1 418.2 357.4 399.7C380 397.3 401.4 393.6 421 388.7C423.3 398.8 425.1 408.5 426.2 417.8V417.8ZM464.7 351.1C456.1 354.8 446.7 358.1 437 361.2C431.3 341.6 423.8 321.2 414.5 300.3C423.7 279.5 431.1 259.2 436.7 239.7C446.6 242.8 456 246.2 464.8 249.9C500.2 265 523.1 284.8 523.1 300.5C523 316.2 500.1 336.1 464.7 351.1V351.1Z" fill="#61DAFB"/>
<path id="Vector_2" d="M299.9 346.2C325.139 346.2 345.6 325.739 345.6 300.5C345.6 275.261 325.139 254.8 299.9 254.8C274.661 254.8 254.2 275.261 254.2 300.5C254.2 325.739 274.661 346.2 299.9 346.2Z" fill="#61DAFB"/>
</g>
</svg>
