<svg width="800" height="800" viewBox="0 0 800 800" fill="none" xmlns="http://www.w3.org/2000/svg">
<g id="UCCFD">
<path id="UCCFD_2" d="M248.617 590.625V658.055C248.617 669.258 245.102 678.117 238.07 684.633C231.086 691.148 221.523 694.406 209.383 694.406C197.43 694.406 187.938 691.242 180.906 684.914C173.875 678.586 170.289 669.891 170.148 658.828V590.625H191.242V658.195C191.242 664.898 192.836 669.797 196.023 672.891C199.258 675.938 203.711 677.461 209.383 677.461C221.242 677.461 227.266 671.227 227.453 658.758V590.625H248.617ZM351.344 658.898C350.547 669.914 346.469 678.586 339.109 684.914C331.797 691.242 322.141 694.406 310.141 694.406C297.016 694.406 286.68 690 279.133 681.188C271.633 672.328 267.883 660.188 267.883 644.766V638.508C267.883 628.664 269.617 619.992 273.086 612.492C276.555 604.992 281.5 599.25 287.922 595.266C294.391 591.234 301.891 589.219 310.422 589.219C322.234 589.219 331.75 592.383 338.969 598.711C346.188 605.039 350.359 613.922 351.484 625.359H330.391C329.875 618.75 328.023 613.969 324.836 611.016C321.695 608.016 316.891 606.516 310.422 606.516C303.391 606.516 298.117 609.047 294.602 614.109C291.133 619.125 289.352 626.93 289.258 637.523V645.258C289.258 656.32 290.922 664.406 294.25 669.516C297.625 674.625 302.922 677.18 310.141 677.18C316.656 677.18 321.508 675.703 324.695 672.75C327.93 669.75 329.781 665.133 330.25 658.898H351.344ZM450.625 658.898C449.828 669.914 445.75 678.586 438.391 684.914C431.078 691.242 421.422 694.406 409.422 694.406C396.297 694.406 385.961 690 378.414 681.188C370.914 672.328 367.164 660.188 367.164 644.766V638.508C367.164 628.664 368.898 619.992 372.367 612.492C375.836 604.992 380.781 599.25 387.203 595.266C393.672 591.234 401.172 589.219 409.703 589.219C421.516 589.219 431.031 592.383 438.25 598.711C445.469 605.039 449.641 613.922 450.766 625.359H429.672C429.156 618.75 427.305 613.969 424.117 611.016C420.977 608.016 416.172 606.516 409.703 606.516C402.672 606.516 397.398 609.047 393.883 614.109C390.414 619.125 388.633 626.93 388.539 637.523V645.258C388.539 656.32 390.203 664.406 393.531 669.516C396.906 674.625 402.203 677.18 409.422 677.18C415.938 677.18 420.789 675.703 423.977 672.75C427.211 669.75 429.062 665.133 429.531 658.898H450.625ZM531.133 651.164H490.633V693H469.539V590.625H536.195V607.711H490.633V634.148H531.133V651.164ZM553.492 693V590.625H584.992C593.992 590.625 602.031 592.664 609.109 596.742C616.234 600.773 621.789 606.539 625.773 614.039C629.758 621.492 631.75 629.977 631.75 639.492V644.203C631.75 653.719 629.781 662.18 625.844 669.586C621.953 676.992 616.445 682.734 609.32 686.812C602.195 690.891 594.156 692.953 585.203 693H553.492ZM574.586 607.711V676.055H584.781C593.031 676.055 599.336 673.359 603.695 667.969C608.055 662.578 610.281 654.867 610.375 644.836V639.422C610.375 629.016 608.219 621.141 603.906 615.797C599.594 610.406 593.289 607.711 584.992 607.711H574.586Z" fill="#3938AD"/>
<g id="Mask Group">
<mask id="mask0" mask-type="alpha" maskUnits="userSpaceOnUse" x="32" y="72" width="737" height="272">
<path id="Rectangle 10" d="M32 72H769V344H32V72Z" fill="white"/>
</mask>
<g mask="url(#mask0)">
<path id="Vector 1" d="M780 99C530.915 392.14 274.492 365.544 20 99" stroke="#3938AD" stroke-width="30"/>
</g>
</g>
<path id="Vector 4" d="M602 528C517.863 528 459.201 520.437 400 498" stroke="#3938AD" stroke-width="30"/>
<g id="Mask Group_2">
<mask id="mask1" mask-type="alpha" maskUnits="userSpaceOnUse" x="119" y="278" width="276" height="225">
<g id="Mask Group_3">
<mask id="mask2" maskUnits="userSpaceOnUse" x="119" y="238" width="302" height="292">
<path id="Rectangle 9" d="M119 238H421V530H119V238Z" fill="white"/>
</mask>
<g mask="url(#mask2)">
<path id="Vector 2" d="M389 488C244 433.5 108 289 108 289" stroke="#3938AD" stroke-width="30"/>
</g>
</g>
</mask>
<g mask="url(#mask1)">
<g id="Mask Group_4">
<path id="Vector 5" d="M484.503 405.043C403.633 493.757 338.234 501.892 193.274 457.674C-100.625 163.816 -17.2133 213.078 -140.926 65.976L212.505 -32.8379C289.313 86.0214 328.474 145.742 484.503 405.043Z" fill="#3938AD" stroke="#3938AD"/>
</g>
</g>
</g>
<g id="Mask Group_5">
<mask id="mask3" mask-type="alpha" maskUnits="userSpaceOnUse" x="198" y="282" width="506" height="256">
<path id="Vector 3" d="M198 523C403.76 523 547.222 464.768 692 292" stroke="#3938AD" stroke-width="30"/>
</mask>
<g mask="url(#mask3)">
<path id="Rectangle 11" d="M149 242H680V576H149V242Z" fill="#3938AD"/>
</g>
</g>
</g>
</svg>
