<svg width="126" height="136" viewBox="0 0 126 136" fill="none" xmlns="http://www.w3.org/2000/svg">
<g id="logo">
<path id="Polygon 1" d="M69.0047 4.82908C65.0923 2.52706 60.2393 2.52705 56.3269 4.82907L12.0567 30.8769C8.23938 33.1229 5.89563 37.2213 5.89563 41.6503V94.0761C5.89563 98.5052 8.23938 102.604 12.0567 104.85L56.3269 130.897C60.2393 133.199 65.0923 133.199 69.0047 130.897L113.275 104.85C117.092 102.604 119.436 98.5052 119.436 94.0761V41.6503C119.436 37.2213 117.092 33.1229 113.275 30.8769L69.0047 4.82908Z" stroke="#292A2E" stroke-width="5"/>
<path id="DEV" d="M27.194 95.0669V92.852L30.0592 92.3598V72.1977L27.194 71.7055V69.4731H37.2135C39.4752 69.4731 41.444 70.0122 43.1198 71.0903C44.8073 72.1684 46.1198 73.6509 47.0573 75.5376C47.9948 77.4243 48.4635 79.5805 48.4635 82.0063V82.5512C48.4635 84.9184 48.0123 87.0512 47.11 88.9497C46.2076 90.8364 44.9244 92.3305 43.2604 93.4321C41.608 94.5219 39.651 95.0669 37.3893 95.0669H27.194ZM33.5221 92.3598H37.2135C38.8307 92.3598 40.2194 91.9204 41.3795 91.0415C42.5397 90.1509 43.4303 88.9673 44.0514 87.4907C44.6842 86.0024 45.0006 84.3559 45.0006 82.5512V81.9712C45.0006 80.1079 44.6842 78.4438 44.0514 76.979C43.4303 75.5024 42.5397 74.3364 41.3795 73.4809C40.2194 72.6255 38.8307 72.1977 37.2135 72.1977H33.5221V92.3598ZM51.0299 95.0669V92.852L53.8951 92.3598V72.1977L51.0299 71.7055V69.4731H69.9791V75.6255H67.2018L66.8151 72.145H57.358V80.477H66.7975V83.2016H57.358V92.4653H67.3776L67.7643 88.9321H70.5241V95.0669H51.0299ZM84.3229 95.0669L75.7448 71.9868L73.7057 71.7055V69.4731H81.7916V71.7055L79.4537 72.0747L85.1842 88.352L85.7819 90.3735H85.8873L86.5201 88.352L92.4616 72.0571L89.86 71.7055V69.4731H97.9284V71.7055L95.8717 71.9868L87.2936 95.0669H84.3229Z" fill="#292A2E"/>
<path id="I&#226;&#128;&#153;MA" d="M30.7692 63.1419V61.2962L33.1569 60.886V44.0843L30.7692 43.6741V41.8138H38.4303V43.6741L36.0426 44.0843V60.886L38.4303 61.2962V63.1419H30.7692ZM41.9313 48.596L40.2907 47.512C40.7496 46.8186 41.0963 46.1106 41.3307 45.388C41.5651 44.6555 41.6823 43.8694 41.6823 43.0296V40.2903H44.568V42.9856C44.568 43.9622 44.3287 44.9729 43.8502 46.0179C43.3815 47.0628 42.7418 47.9222 41.9313 48.596ZM47.1315 63.1419V61.2962L49.5192 60.886V44.0843L47.1315 43.6741V41.8138H53.3717L60.2418 58.0003H60.3297L66.9801 41.8138H73.4108V43.6741L71.0231 44.0843V60.886L73.4108 61.2962V63.1419H65.7496V61.2962L68.2692 60.886V45.7542L68.1959 45.7395L61.2672 62.3802H59.3483L52.1852 45.7688L52.1119 45.7835L52.2145 54.7044V60.886L54.7926 61.2962V63.1419H47.1315ZM75.8131 63.1419V61.2962L77.3951 61.0765L84.8512 41.8138H87.3268L94.651 61.0765L96.2184 61.2962V63.1419H90.0953V61.2962L91.7067 61.0179L90.3004 57.0921H81.7604L80.3102 61.0179L81.9215 61.2962V63.1419H75.8131ZM82.6539 54.6751H89.4215L86.2867 46.0032L86.111 45.5198H86.0231L85.8473 46.0032L82.6539 54.6751Z" fill="#292A2E"/>
</g>
</svg>
