<svg width="122" height="64" viewBox="0 0 122 64" fill="none" xmlns="http://www.w3.org/2000/svg">
<g id="Toggle">
<path id="Polygon 6" d="M36.3017 3.31976L53.6263 13.3221C56.5656 15.0191 58.3763 18.1553 58.3763 21.5494V41.5541C58.3763 44.9481 56.5656 48.0843 53.6263 49.7813L36.3017 59.7837C33.3624 61.4807 29.741 61.4807 26.8017 59.7837L9.47713 49.7813C6.53782 48.0843 4.72713 44.9481 4.72713 41.5541V21.5494C4.72713 18.1553 6.53782 15.0191 9.47713 13.3221L26.8017 3.31977C29.741 1.62275 33.3624 1.62275 36.3017 3.31976Z" fill="#292A2E" stroke="#292A2E"/>
<path id="Polygon 7" d="M94.9483 3.75278L112.273 13.7551C115.058 15.3628 116.773 18.334 116.773 21.5494V41.5541C116.773 44.7695 115.058 47.7406 112.273 49.3483L94.9483 59.3507C92.1637 60.9584 88.7329 60.9584 85.9483 59.3507L68.6237 49.3483C65.8391 47.7406 64.1237 44.7695 64.1237 41.5541V21.5494C64.1237 18.334 65.8391 15.3628 68.6237 13.7551L85.9483 3.75278C88.7329 2.14508 92.1637 2.14508 94.9483 3.75278Z" stroke="#292A2E" stroke-width="2"/>
</g>
</svg>
