<svg width="1170" height="1320" viewBox="0 0 1170 1320" fill="none" xmlns="http://www.w3.org/2000/svg">
<g filter="url(#filter0_d)">
<path d="M627.139 54.1305C590.561 32.6167 545.19 32.6166 508.612 54.1304L94.7206 297.563C59.0317 318.553 37.1195 356.855 37.1195 398.246V888.196C37.1195 929.589 59.0317 967.894 94.7206 988.885L508.612 1232.31C545.19 1253.82 590.561 1253.82 627.139 1232.31L1041.03 988.885C1076.72 967.894 1098.63 929.589 1098.63 888.196V398.246C1098.63 356.855 1076.72 318.553 1041.03 297.563L627.139 54.1305Z" stroke="white" stroke-width="26"/>
<path d="M236.241 897.456V876.756L263.029 872.157V683.73L236.241 679.13V658.267H329.916C351.061 658.267 369.467 663.305 385.135 673.381C400.911 683.456 413.182 697.311 421.947 714.943C430.712 732.575 435.095 752.726 435.095 775.397V780.489C435.095 802.612 430.876 822.545 422.441 840.287C414.004 857.92 402.007 871.883 386.449 882.178C371.001 892.363 352.705 897.456 331.56 897.456H236.241ZM295.405 872.157H329.916C345.036 872.157 358.018 868.05 368.865 859.836C379.711 851.513 388.038 840.452 393.845 826.652C399.761 812.743 402.719 797.355 402.719 780.489V775.069C402.719 757.655 399.761 742.103 393.845 728.414C388.038 714.614 379.711 703.717 368.865 695.722C358.018 687.728 345.036 683.73 329.916 683.73H295.405V872.157ZM459.089 897.456V876.756L485.876 872.157V683.73L459.089 679.13V658.267H636.249V715.765H610.283L606.667 683.237H518.251V761.105H606.503V786.568H518.251V873.143H611.926L615.542 840.123H641.343V897.456H459.089ZM770.352 897.456L690.152 681.759L671.089 679.13V658.267H746.686V679.13L724.829 682.58L778.404 834.701L783.991 853.593H784.978L790.894 834.701L846.441 682.416L822.119 679.13V658.267H897.551V679.13L878.324 681.759L798.125 897.456H770.352Z" fill="white"/>
<path d="M260.318 599.098V581.849L282.641 578.015V420.994L260.318 417.16V399.774H331.943V417.16L309.62 420.994V578.015L331.943 581.849V599.098H260.318ZM364.675 463.158L349.337 453.027C353.627 446.547 356.868 439.931 359.06 433.177C361.251 426.332 362.347 418.985 362.347 411.137V385.536H389.326V410.726C389.326 419.852 387.089 429.298 382.615 439.064C378.233 448.829 372.252 456.861 364.675 463.158ZM413.293 599.098V581.849L435.616 578.015V420.994L413.293 417.16V399.774H471.634L535.864 551.047H536.685L598.861 399.774H658.983V417.16L636.66 420.994V578.015L658.983 581.849V599.098H587.357V581.849L610.913 578.015V436.6L610.228 436.462L545.45 591.979H527.51L460.541 436.736L459.855 436.874L460.815 520.245V578.015L484.918 581.849V599.098H413.293ZM681.443 599.098V581.849L696.233 579.796L765.942 399.774H789.087L857.562 579.796L872.216 581.849V599.098H814.97V581.849L830.036 579.248L816.888 542.559H737.045L723.487 579.248L738.552 581.849V599.098H681.443ZM745.399 519.971H808.671L779.363 438.927L777.72 434.409H776.898L775.255 438.927L745.399 519.971Z" fill="white"/>
</g>
<defs>
<filter id="filter0_d" x="0.119507" y="0.995117" width="1169.51" height="1318.45" filterUnits="userSpaceOnUse" color-interpolation-filters="sRGB">
<feFlood flood-opacity="0" result="BackgroundImageFix"/>
<feColorMatrix in="SourceAlpha" type="matrix" values="0 0 0 0 0 0 0 0 0 0 0 0 0 0 0 0 0 0 127 0"/>
<feOffset dx="17" dy="17"/>
<feGaussianBlur stdDeviation="20.5"/>
<feColorMatrix type="matrix" values="0 0 0 0 0 0 0 0 0 0 0 0 0 0 0 0 0 0 0.83 0"/>
<feBlend mode="normal" in2="BackgroundImageFix" result="effect1_dropShadow"/>
<feBlend mode="normal" in="SourceGraphic" in2="effect1_dropShadow" result="shape"/>
</filter>
</defs>
</svg>
