<svg width="122" height="64" viewBox="0 0 122 64" fill="none" xmlns="http://www.w3.org/2000/svg">
<g id="Toggle">
<path id="Polygon 6" d="M85.6983 3.31976L68.3737 13.3221C65.4344 15.0191 63.6237 18.1553 63.6237 21.5494V41.5541C63.6237 44.9481 65.4344 48.0843 68.3737 49.7813L85.6983 59.7837C88.6376 61.4807 92.259 61.4807 95.1983 59.7837L112.523 49.7813C115.462 48.0843 117.273 44.9481 117.273 41.5541V21.5494C117.273 18.1553 115.462 15.0191 112.523 13.3221L95.1983 3.31977C92.259 1.62275 88.6376 1.62275 85.6983 3.31976Z" fill="#292A2E" stroke="#292A2E"/>
<path id="Polygon 7" d="M27.0518 3.75278L9.7272 13.7551C6.94259 15.3628 5.2272 18.334 5.2272 21.5494V41.5541C5.2272 44.7695 6.94258 47.7406 9.7272 49.3483L27.0518 59.3507C29.8364 60.9584 33.2672 60.9584 36.0518 59.3507L53.3764 49.3483C56.161 47.7406 57.8764 44.7695 57.8764 41.5541V21.5494C57.8764 18.334 56.161 15.3628 53.3764 13.7551L36.0518 3.75278C33.2672 2.14508 29.8364 2.14508 27.0518 3.75278Z" stroke="#292A2E" stroke-width="2"/>
</g>
</svg>
