<svg width="59" height="59" viewBox="0 0 59 59" fill="none" xmlns="http://www.w3.org/2000/svg">
<g id="wapp">
<path id="Vector" d="M58.5354 43.948C58.5354 51.9386 51.985 58.5354 43.9945 58.5354H15.0055C7.01496 58.5354 0.464569 51.9386 0.464569 43.948V14.9591C0.464569 6.96851 7.01496 0.464569 15.0055 0.464569H43.9945C51.985 0.464569 58.5354 6.92205 58.5354 14.9591V43.948Z" fill="#201E1E"/>

<path id="Vector_2" d="M47.6181 29.4536C47.6181 39.2095 39.674 47.1071 29.8252 47.1071C26.7126 47.1071 23.7858 46.3173 21.2307 44.9236L11.3819 48.0362L14.5874 38.5591C12.9614 35.911 12.0323 32.7984 12.0323 29.4536C12.0323 19.6977 19.9764 11.8 29.8252 11.8C39.674 11.8 47.6181 19.6977 47.6181 29.4536ZM29.8252 14.5874C21.5559 14.5874 14.8661 21.2307 14.8661 29.4071C14.8661 32.6591 15.9347 35.6788 17.7 38.0945L15.8417 43.6228L21.6024 41.811C23.9717 43.3441 26.8055 44.2732 29.8252 44.2732C38.0945 44.2732 44.7843 37.6299 44.7843 29.4536C44.7843 21.2772 38.0945 14.5874 29.8252 14.5874ZM38.7913 33.4953C38.6984 33.3095 38.3732 33.2165 37.9551 32.9843C37.537 32.752 35.3536 31.7299 34.9819 31.5906C34.6102 31.4512 34.285 31.3583 34.0063 31.8228C33.7276 32.241 32.8913 33.2165 32.6126 33.5417C32.3803 33.8205 32.1016 33.8669 31.6835 33.6347C31.2654 33.4024 29.8252 32.9843 28.1528 31.4977C26.852 30.3362 25.9693 28.9425 25.737 28.5244C25.5047 28.1063 25.6906 27.874 25.9228 27.6417C26.1087 27.4559 26.341 27.1307 26.5732 26.8984C26.8055 26.6662 26.852 26.4803 26.9913 26.1551C27.1307 25.8764 27.0843 25.5977 26.9449 25.4118C26.852 25.1795 25.9693 23.089 25.5976 22.2063C25.226 21.3236 24.8543 21.5095 24.6221 21.5095C24.3898 21.5095 24.0646 21.463 23.7858 21.463C23.5071 21.463 23.0425 21.5559 22.6244 22.0205C22.2063 22.4386 21.0913 23.5071 21.0913 25.6441C21.0913 27.7811 22.6709 29.8252 22.8567 30.104C23.089 30.3827 25.8764 34.889 30.2898 36.6543C34.7032 38.3732 34.7032 37.8158 35.5394 37.7228C36.3291 37.6299 38.0945 36.7008 38.4662 35.6788C38.9307 34.5638 38.9307 33.6811 38.7913 33.4953Z" fill="white"/>
</g>
</svg>
