<svg width="1000" height="1385" viewBox="0 0 1000 1385" fill="none" xmlns="http://www.w3.org/2000/svg">
<g id="Group">
<path id="Vector" d="M656.45 500.766L517.927 629.663L389.384 370.394L455.897 221.295C472.733 191.405 500.202 191.348 517.038 221.295L656.45 500.766Z" fill="#FFA000"/>
<path id="Vector_2" d="M517.927 629.659L0.272949 1111.22L389.384 370.39L517.927 629.659Z" fill="#F57F17"/>
<path id="Vector_3" d="M807.959 303.748C832.706 279.962 858.291 288.075 864.811 321.777L999.552 1104.77L552.891 1372.46C537.26 1381.1 495.867 1384.84 495.867 1384.84C495.867 1384.84 458.086 1380.32 443.686 1372.33L0.257629 1111.19L807.959 303.748Z" fill="#FFCA28"/>
<path id="Vector_4" d="M389.383 370.39L0.272156 1111.22L173.588 28.4777C179.971 -5.25146 199.17 -8.4997 216.3 21.2721L389.383 370.39Z" fill="#FFA000"/>
<g id="Website 1">
<path id="Vector_5" d="M499 856.2C397.173 856.2 311.27 925.503 285.869 1019.4H305.894C313.075 995.38 324.723 973.311 339.7 953.944C356.095 963.187 375.065 970.907 396.044 976.857C392.549 990.301 389.653 1004.47 387.625 1019.4H407.2C409.148 1006.19 411.806 993.583 414.963 981.6C438.1 986.703 463.121 989.721 489.4 990.319V1019.4H508.6V990.319C534.877 989.721 559.905 986.719 583.038 981.619C586.192 993.596 588.853 1006.2 590.8 1019.4H610.375C608.348 1004.47 605.451 990.301 601.956 976.857C622.938 970.907 641.905 963.19 658.3 953.944C673.277 973.311 684.925 995.38 692.106 1019.4H712.131C686.73 925.503 600.827 856.2 499 856.2ZM489.4 876.563V971.119C464.994 970.522 441.784 967.709 420.419 963.075C436.173 915.845 461.193 882.773 489.4 876.563ZM508.6 876.563C536.807 882.773 561.828 915.845 577.581 963.075C556.218 967.709 533.008 970.522 508.6 971.119V876.563ZM442.675 883.594C425.776 901.409 411.625 927.153 401.425 958.35C383.069 953.162 366.528 946.629 352.338 939.019C376.654 913.155 407.716 893.806 442.675 883.594ZM555.325 883.594C590.284 893.806 621.346 913.155 645.663 939.019C631.475 946.631 614.93 953.161 596.575 958.35C586.375 927.153 572.224 901.409 555.325 883.594ZM287.8 1038.6L312.175 1115.4H334.544L354.831 1057.99L375.175 1115.4H397.056L421.863 1038.6H401.088L385.413 1092.24L367.506 1038.6H342.981L324.306 1091.34L308.913 1038.6H287.8ZM431.969 1038.6L456.363 1115.4H478.731L499 1057.99L519.344 1115.4H541.225L566.031 1038.6H545.256L529.581 1092.24L511.675 1038.6H487.15L468.475 1091.34L453.081 1038.6H431.969ZM575.631 1038.6L600.119 1115.4H622.563L642.925 1057.99L663.344 1115.4H685.3L710.2 1038.6H689.35L673.619 1092.24L655.656 1038.6H631.038L612.288 1091.34L596.819 1038.6H575.631ZM285.869 1134.6C311.27 1228.5 397.173 1297.8 499 1297.8C600.827 1297.8 686.73 1228.5 712.131 1134.6H692.106C684.925 1158.62 673.277 1180.69 658.3 1200.06C641.905 1190.81 622.935 1183.09 601.956 1177.14C605.451 1163.7 608.348 1149.53 610.375 1134.6H590.8C588.851 1147.81 586.195 1160.42 583.038 1172.4C559.9 1167.3 534.879 1164.28 508.6 1163.68V1134.6H489.4V1163.68C463.123 1164.28 438.095 1167.28 414.963 1172.38C411.808 1160.4 409.147 1147.8 407.2 1134.6H387.625C389.654 1149.53 392.549 1163.7 396.044 1177.14C375.062 1183.09 356.095 1190.81 339.7 1200.06C324.723 1180.69 313.075 1158.62 305.894 1134.6H285.869ZM489.4 1182.88V1277.44C461.193 1271.23 436.173 1238.16 420.419 1190.93C441.782 1186.29 464.992 1183.48 489.4 1182.88ZM508.6 1182.88C533.007 1183.48 556.216 1186.29 577.581 1190.93C561.826 1238.16 536.807 1271.23 508.6 1277.44V1182.88ZM401.444 1195.65C411.646 1226.85 425.777 1252.59 442.675 1270.41C407.716 1260.19 376.654 1240.85 352.338 1214.98C366.53 1207.37 383.082 1200.84 401.444 1195.65ZM596.575 1195.65C614.931 1200.84 631.472 1207.37 645.663 1214.98C621.346 1240.85 590.284 1260.19 555.325 1270.41C572.225 1252.59 586.374 1226.85 596.575 1195.65Z" fill="black"/>
</g>
</g>
</svg>
