<svg width="825" height="204" viewBox="0 0 825 204" fill="none" xmlns="http://www.w3.org/2000/svg">
<g id="indexedDB">
<path id="Indexed" d="M28.377 161H17.9268V37.2969H28.377V161ZM69.3281 69.0723L69.668 84.79C73.123 79.126 77.4277 74.8213 82.582 71.876C87.7363 68.874 93.4287 67.373 99.6592 67.373C109.515 67.373 116.85 70.1484 121.664 75.6992C126.479 81.25 128.914 89.5762 128.971 100.678V161H118.86V100.593C118.804 92.3799 117.048 86.2627 113.593 82.2412C110.194 78.2197 104.729 76.209 97.1953 76.209C90.9082 76.209 85.3291 78.1914 80.458 82.1562C75.6436 86.0645 72.0752 91.3604 69.7529 98.0439V161H59.6426V69.0723H69.3281ZM151.23 114.187C151.23 99.9131 154.402 88.5566 160.746 80.1172C167.146 71.6211 175.812 67.373 186.744 67.373C199.148 67.373 208.607 72.2725 215.121 82.0713V30.5H225.231V161H215.716L215.291 148.766C208.777 158.055 199.205 162.699 186.574 162.699C175.982 162.699 167.43 158.451 160.916 149.955C154.459 141.402 151.23 129.876 151.23 115.376V114.187ZM161.511 115.971C161.511 127.695 163.861 136.956 168.562 143.753C173.264 150.493 179.891 153.863 188.443 153.863C200.961 153.863 209.854 148.341 215.121 137.296V94.1357C209.854 82.1846 201.018 76.209 188.613 76.209C180.061 76.209 173.405 79.5791 168.647 86.3193C163.89 93.0029 161.511 102.887 161.511 115.971ZM287.593 162.699C279.776 162.699 272.696 160.773 266.353 156.922C260.065 153.07 255.166 147.718 251.654 140.864C248.143 133.954 246.387 126.223 246.387 117.67V114.017C246.387 105.181 248.086 97.2227 251.484 90.1426C254.939 83.0625 259.726 77.5117 265.843 73.4902C271.96 69.4121 278.587 67.373 285.724 67.373C296.882 67.373 305.718 71.1963 312.231 78.8428C318.802 86.4326 322.087 96.8262 322.087 110.023V115.716H256.497V117.67C256.497 128.092 259.471 136.786 265.418 143.753C271.422 150.663 278.955 154.118 288.018 154.118C293.455 154.118 298.241 153.127 302.376 151.145C306.567 149.162 310.362 145.99 313.761 141.629L320.133 146.472C312.656 157.29 301.81 162.699 287.593 162.699ZM285.724 76.0391C278.077 76.0391 271.62 78.8428 266.353 84.4502C261.142 90.0576 257.97 97.5908 256.837 107.05H311.977V105.945C311.693 97.1094 309.173 89.916 304.415 84.3652C299.657 78.8145 293.427 76.0391 285.724 76.0391ZM370.77 106.37L395.578 69.0723H407.643L376.462 114.187L409.002 161H397.022L370.854 122.088L344.687 161H332.707L365.162 114.187L333.981 69.0723H345.961L370.77 106.37ZM460.403 162.699C452.587 162.699 445.507 160.773 439.163 156.922C432.876 153.07 427.977 147.718 424.465 140.864C420.953 133.954 419.197 126.223 419.197 117.67V114.017C419.197 105.181 420.896 97.2227 424.295 90.1426C427.75 83.0625 432.536 77.5117 438.653 73.4902C444.771 69.4121 451.397 67.373 458.534 67.373C469.692 67.373 478.528 71.1963 485.042 78.8428C491.612 86.4326 494.897 96.8262 494.897 110.023V115.716H429.308V117.67C429.308 128.092 432.281 136.786 438.229 143.753C444.232 150.663 451.766 154.118 460.828 154.118C466.266 154.118 471.052 153.127 475.187 151.145C479.378 149.162 483.173 145.99 486.571 141.629L492.943 146.472C485.467 157.29 474.62 162.699 460.403 162.699ZM458.534 76.0391C450.888 76.0391 444.431 78.8428 439.163 84.4502C433.952 90.0576 430.78 97.5908 429.647 107.05H484.787V105.945C484.504 97.1094 481.983 89.916 477.226 84.3652C472.468 78.8145 466.237 76.0391 458.534 76.0391ZM510.615 114.187C510.615 99.9131 513.787 88.5566 520.131 80.1172C526.531 71.6211 535.197 67.373 546.129 67.373C558.533 67.373 567.992 72.2725 574.506 82.0713V30.5H584.616V161H575.101L574.676 148.766C568.162 158.055 558.59 162.699 545.959 162.699C535.367 162.699 526.814 158.451 520.301 149.955C513.844 141.402 510.615 129.876 510.615 115.376V114.187ZM520.896 115.971C520.896 127.695 523.246 136.956 527.947 143.753C532.648 150.493 539.275 153.863 547.828 153.863C560.346 153.863 569.238 148.341 574.506 137.296V94.1357C569.238 82.1846 560.402 76.209 547.998 76.209C539.445 76.209 532.79 79.5791 528.032 86.3193C523.274 93.0029 520.896 102.887 520.896 115.971Z" fill="black"/>
<path id="DB" d="M610.045 161V37.2969H648.107C658.982 37.2969 668.696 39.7607 677.249 44.6885C685.858 49.5596 692.57 56.5264 697.385 65.5889C702.199 74.5947 704.606 84.8467 704.606 96.3447V102.037C704.606 113.535 702.228 123.759 697.47 132.708C692.769 141.657 686.113 148.596 677.504 153.523C668.895 158.451 659.181 160.943 648.362 161H610.045ZM635.533 57.9424V140.524H647.853C657.821 140.524 665.439 137.268 670.707 130.754C675.975 124.24 678.665 114.923 678.778 102.802V96.2598C678.778 83.6855 676.173 74.1699 670.962 67.7129C665.751 61.1992 658.133 57.9424 648.107 57.9424H635.533ZM723.213 161V37.2969H766.543C781.553 37.2969 792.938 40.1855 800.697 45.9629C808.457 51.6836 812.337 60.0947 812.337 71.1963C812.337 77.2568 810.779 82.6094 807.664 87.2539C804.549 91.8418 800.216 95.2119 794.665 97.3643C801.009 98.9502 805.993 102.15 809.618 106.965C813.3 111.779 815.141 117.67 815.141 124.637C815.141 136.531 811.346 145.537 803.756 151.654C796.166 157.771 785.348 160.887 771.301 161H723.213ZM748.701 107.135V140.524H770.536C776.54 140.524 781.213 139.108 784.555 136.276C787.953 133.388 789.652 129.423 789.652 124.382C789.652 113.054 783.79 107.305 772.065 107.135H748.701ZM748.701 89.123H767.562C780.42 88.8965 786.849 83.7705 786.849 73.7451C786.849 68.1377 785.206 64.1162 781.921 61.6807C778.692 59.1885 773.566 57.9424 766.543 57.9424H748.701V89.123Z" fill="#F81A1A"/>
</g>
</svg>
