<svg width="1173" height="411" viewBox="0 0 1173 411" fill="none" xmlns="http://www.w3.org/2000/svg">
<g id="JSX">
<path id="Rectangle" d="M1173 0H0V411H1173V0Z" fill="#F3DF49"/>
<path id="JS" d="M363.266 353C381.898 353 397.679 350.318 410.61 344.954C423.542 339.59 434.039 332.269 442.104 322.991C450.168 313.713 455.939 302.913 459.415 290.59C462.891 278.268 464.629 265.148 464.629 251.231V64.219H296.942V117.713H403.311V246.012C403.311 265.728 399.835 279.282 392.882 286.676C385.93 294.069 375.363 297.766 361.18 297.766C342.549 297.766 325.307 287.328 309.456 266.453L274 306.03C279.84 314.728 286.375 322.049 293.605 327.993C300.835 333.936 308.344 338.793 316.13 342.562C323.917 346.331 331.842 349.013 339.907 350.608C347.971 352.203 355.758 353 363.266 353ZM676.115 353C693.078 353 708.095 350.608 721.165 345.824C734.235 341.04 745.219 334.661 754.118 326.688C763.017 318.714 769.83 309.436 774.558 298.854C779.285 288.271 781.649 277.035 781.649 265.148C781.649 245.142 776.435 229.05 766.006 216.873C755.578 204.695 741.326 195.127 723.25 188.169L690.297 173.382C676.949 168.453 666.173 163.741 657.969 159.247C649.766 154.753 645.664 148.302 645.664 139.893C645.664 131.485 648.792 125.107 655.049 120.757C661.306 116.408 669.58 114.234 679.869 114.234C693.217 114.234 704.619 116.191 714.074 120.105C723.528 124.019 732.983 129.601 742.438 136.849L773.723 96.4024C761.209 84.2249 747.166 74.9468 731.593 68.5681C716.02 62.1894 699.891 59 683.206 59C668.467 59 654.98 61.1745 642.744 65.5237C630.508 69.8728 620.01 75.8891 611.251 83.5725C602.491 91.2559 595.678 100.244 590.811 110.537C585.945 120.83 583.511 131.775 583.511 143.373C583.511 153.811 585.11 163.161 588.308 171.425C591.506 179.688 595.747 186.936 601.031 193.17C606.315 199.404 612.502 204.84 619.593 209.479C626.684 214.118 633.984 217.888 641.493 220.787L676.532 236.444C682.928 239.343 688.767 241.953 694.051 244.272C699.335 246.592 703.784 249.056 707.399 251.666C711.015 254.275 713.795 257.247 715.742 260.581C717.689 263.916 718.662 268.047 718.662 272.976C718.662 280.225 715.603 286.169 709.485 290.808C703.367 295.447 693.634 297.766 680.286 297.766C666.938 297.766 654.146 295.012 641.91 289.503C629.674 283.994 618.411 276.89 608.122 268.192L572.666 312.118C587.405 325.746 603.742 335.966 621.679 342.78C639.616 349.593 657.761 353 676.115 353Z" fill="#212121"/>
<path id="Rectangle 6" d="M890 9.15527e-05H1173V411H788.5L890 9.15527e-05Z" fill="#8A53A6"/>
<path id="X" d="M962.49 357.562L990.855 299.719C994.192 292.18 997.529 284.714 1000.87 277.321C1004.2 269.927 1007.54 261.882 1010.88 253.183H1012.55C1016.44 261.882 1020.05 269.927 1023.39 277.321C1026.73 284.714 1030.34 292.18 1034.24 299.719L1063.85 357.562H1132.26L1053.01 214.911L1127.67 74H1061.77L1037.57 127.494C1034.51 134.163 1031.52 141.194 1028.6 148.587C1025.69 155.981 1022.56 164.172 1019.22 173.16H1017.55C1013.38 164.172 1009.63 155.981 1006.29 148.587C1002.95 141.194 999.753 134.163 996.694 127.494L970.415 74H901.589L976.255 211.867L897 357.562H962.49Z" fill="#F4F4F3"/>
</g>
</svg>
