<svg width="126" height="136" viewBox="0 0 126 136" fill="none" xmlns="http://www.w3.org/2000/svg">
<path d="M69.5842 4.82908C65.6718 2.52706 60.8188 2.52705 56.9064 4.82907L12.6362 30.8769C8.81888 33.1229 6.47512 37.2213 6.47512 41.6503V94.0761C6.47512 98.5052 8.81888 102.604 12.6362 104.85L56.9064 130.897C60.8188 133.199 65.6718 133.199 69.5842 130.897L113.854 104.85C117.672 102.604 120.015 98.5052 120.015 94.0761V41.6503C120.015 37.2213 117.672 33.1229 113.854 30.8769L69.5842 4.82908Z" stroke="white" stroke-width="5"/>
<path d="M27.7734 95.0669V92.852L30.6387 92.3598V72.1977L27.7734 71.7055V69.4731H37.793C40.0547 69.4731 42.0234 70.0122 43.6992 71.0903C45.3867 72.1684 46.6992 73.6509 47.6367 75.5376C48.5742 77.4243 49.043 79.5805 49.043 82.0063V82.5512C49.043 84.9184 48.5918 87.0512 47.6895 88.9497C46.7871 90.8364 45.5039 92.3305 43.8398 93.4321C42.1875 94.5219 40.2305 95.0669 37.9688 95.0669H27.7734ZM34.1016 92.3598H37.793C39.4102 92.3598 40.7988 91.9204 41.959 91.0415C43.1191 90.1509 44.0098 88.9673 44.6309 87.4907C45.2637 86.0024 45.5801 84.3559 45.5801 82.5512V81.9712C45.5801 80.1079 45.2637 78.4438 44.6309 76.979C44.0098 75.5024 43.1191 74.3364 41.959 73.4809C40.7988 72.6255 39.4102 72.1977 37.793 72.1977H34.1016V92.3598ZM51.6094 95.0669V92.852L54.4746 92.3598V72.1977L51.6094 71.7055V69.4731H70.5586V75.6255H67.7813L67.3945 72.145H57.9375V80.477H67.377V83.2016H57.9375V92.4653H67.957L68.3438 88.9321H71.1035V95.0669H51.6094ZM84.9024 95.0669L76.3242 71.9868L74.2852 71.7055V69.4731H82.3711V71.7055L80.0332 72.0747L85.7637 88.352L86.3613 90.3735H86.4668L87.0996 88.352L93.041 72.0571L90.4395 71.7055V69.4731H98.5078V71.7055L96.4512 71.9868L87.8731 95.0669H84.9024Z" fill="white"/>
<path d="M30.3486 63.1419V61.2962L32.7363 60.886V44.0843L30.3486 43.6741V41.8138H38.0098V43.6741L35.6221 44.0843V60.886L38.0098 61.2962V63.1419H30.3486ZM41.5107 48.596L39.8701 47.512C40.3291 46.8186 40.6758 46.1106 40.9102 45.388C41.1445 44.6555 41.2617 43.8694 41.2617 43.0296V40.2903H44.1475V42.9856C44.1475 43.9622 43.9082 44.9729 43.4297 46.0179C42.9609 47.0628 42.3213 47.9222 41.5107 48.596ZM46.7109 63.1419V61.2962L49.0986 60.886V44.0843L46.7109 43.6741V41.8138H52.9512L59.8213 58.0003H59.9092L66.5596 41.8138H72.9902V43.6741L70.6025 44.0843V60.886L72.9902 61.2962V63.1419H65.3291V61.2962L67.8486 60.886V45.7542L67.7754 45.7395L60.8467 62.3802H58.9277L51.7647 45.7688L51.6914 45.7835L51.7939 54.7044V60.886L54.3721 61.2962V63.1419H46.7109ZM75.3926 63.1419V61.2962L76.9746 61.0765L84.4307 41.8138H86.9063L94.2305 61.0765L95.7979 61.2962V63.1419H89.6748V61.2962L91.2861 61.0179L89.8799 57.0921H81.3398L79.8897 61.0179L81.501 61.2962V63.1419H75.3926ZM82.2334 54.6751H89.001L85.8662 46.0032L85.6904 45.5198H85.6025L85.4268 46.0032L82.2334 54.6751Z" fill="white"/>
</svg>
