<svg width="256" height="254" viewBox="0 0 256 254" fill="none" xmlns="http://www.w3.org/2000/svg">
<g id="argenclima">
<g id="Logo-AC">
<g id="sol" filter="url(#filter0_d)">
<g id="g2129">
<path id="path2140" d="M114.427 7.8344C111.937 17.916 114.682 26.2154 119.441 34.0355C123.121 40.0826 125.54 46.5269 125.425 53.4508C123.75 54.428 122.154 55.4814 120.613 56.6149L82.1495 30.1682L107.972 69.5457C107.508 70.2089 107.056 70.8981 106.621 71.58C99.2966 68.1646 92.4212 67.4873 85.8696 68.7992C76.608 70.6538 68.745 68.6459 60.5343 63.5801C65.6599 72.5317 73.307 76.3889 82.0141 78.4348C88.7606 80.02 94.8587 82.8015 99.5125 87.8008C99.0061 89.6846 98.5879 91.5899 98.2699 93.524L52.9957 103.028L98.1679 111.97C98.292 112.775 98.4416 113.577 98.6003 114.38C91.0863 117.323 85.7439 121.866 82.0066 127.59C76.7244 135.681 69.83 140.019 60.5639 142.447C70.3028 145.025 78.3066 142.15 85.8609 137.223C91.7025 133.413 97.9278 130.91 104.616 131.029C105.56 132.762 106.578 134.415 107.673 136.01L82.1385 175.86L120.197 149.082C120.832 149.558 121.476 150.048 122.129 150.494C118.83 158.076 118.189 165.227 119.457 172.009C121.248 181.597 119.295 189.703 114.401 198.203C123.049 192.897 126.775 184.98 128.751 175.967C130.282 168.983 132.969 162.67 137.799 157.853C139.622 158.379 141.455 158.809 143.328 159.139L152.508 206.006L161.147 159.245C161.924 159.116 162.699 158.961 163.475 158.797C166.316 166.578 170.707 172.107 176.236 175.975C184.052 181.443 188.242 188.58 190.588 198.172C193.078 188.09 190.301 179.805 185.541 171.985C181.854 165.926 179.463 159.501 179.59 152.555C181.253 151.583 182.838 150.532 184.369 149.405L222.865 175.838L197.029 136.427C197.483 135.777 197.935 135.108 198.362 134.44C205.688 137.865 212.59 138.52 219.145 137.207C228.407 135.352 236.237 137.374 244.448 142.44C239.322 133.488 231.689 129.665 222.982 127.619C216.243 126.036 210.151 123.2 205.502 118.206C206.007 116.325 206.395 114.427 206.712 112.496L252 103.026L206.814 94.0498C206.69 93.2453 206.541 92.4431 206.382 91.6399C213.903 88.6997 219.238 84.1553 222.976 78.4299C228.258 70.3391 235.166 66.0348 244.432 63.6067C234.693 61.0289 226.676 63.8703 219.121 68.7972C213.268 72.6144 207.062 75.0897 200.353 74.9576C199.413 73.2359 198.398 71.5958 197.309 70.0103L222.857 30.1934L184.772 56.9048C184.144 56.4349 183.498 55.9671 182.853 55.5257C186.157 47.9461 186.807 40.8266 185.539 34.0445C183.748 24.457 185.687 16.3173 190.581 7.81768C181.934 13.1237 178.24 21.0259 176.264 30.0394C174.731 37.0311 171.997 43.3643 167.151 48.1813C165.34 47.6606 163.514 47.2087 161.655 46.8811L152.506 0L143.835 46.7754C143.058 46.9039 142.283 47.0588 141.507 47.2231C138.665 39.4426 134.277 33.915 128.746 30.0455C120.931 24.5775 116.773 17.4266 114.427 7.8344Z" fill="#FCBF49"/>
<path id="path2140 (Stroke)" fill-rule="evenodd" clip-rule="evenodd" d="M151.947 0.0056279L153.064 0L162.126 46.4334C163.765 46.7378 165.377 47.1348 166.972 47.5856C171.562 42.9089 174.19 36.7928 175.682 29.9916C177.675 20.8987 181.427 12.831 190.248 7.4186L191.027 8.22716C186.196 16.6185 184.303 24.6029 186.061 34.0106C187.324 40.7707 186.711 47.8557 183.534 55.3653C183.941 55.6503 184.347 55.9434 184.745 56.2384L222.458 29.788L223.252 30.6019L197.948 70.0375C198.9 71.4426 199.795 72.8922 200.632 74.4044C207.063 74.4493 213.048 72.0509 218.743 68.3372C226.365 63.3657 234.536 60.4512 244.469 63.0803L244.467 64.2224C235.319 66.6197 228.55 70.8489 223.368 78.7875C219.641 84.4949 214.356 89.0413 206.974 92.0242C207.072 92.5337 207.166 93.0451 207.25 93.5584L251.995 102.447L252 103.603L207.146 112.983C206.857 114.679 206.512 116.354 206.077 118.018C210.591 122.751 216.474 125.476 223.028 127.016C231.812 129.08 239.605 132.964 244.834 142.095L244.052 142.901C235.945 137.899 228.265 135.927 219.178 137.747C212.645 139.055 205.777 138.438 198.516 135.144C198.241 135.566 197.958 135.986 197.673 136.399L223.257 175.424L222.471 176.246L184.343 150.066C182.986 151.051 181.585 151.978 180.125 152.844C180.081 159.502 182.398 165.698 185.985 171.592C190.787 179.481 193.636 187.926 191.096 198.21L189.993 198.208C187.677 188.739 183.56 181.746 175.89 176.38C170.379 172.524 165.986 167.047 163.104 159.41C162.612 159.511 162.118 159.608 161.622 159.695L153.068 206L151.951 206.006L142.858 159.587C141.209 159.283 139.589 158.902 137.979 158.448C133.407 163.124 130.823 169.219 129.333 176.014C127.339 185.108 123.555 193.189 114.735 198.601L113.956 197.793C118.788 189.4 120.693 181.449 118.935 172.043C117.672 165.283 118.277 158.167 121.45 150.653C121.035 150.357 120.624 150.05 120.223 149.749L82.5385 176.265L81.7442 175.452L107.034 135.982C106.077 134.567 105.179 133.105 104.337 131.583C97.9264 131.551 91.9237 133.976 86.2402 137.682C78.619 142.653 70.4614 145.602 60.5274 142.973L60.5287 141.831C69.6757 139.434 76.4316 135.172 81.6152 127.232C85.341 121.525 90.6334 116.981 98.0086 113.996C97.9106 113.486 97.8172 112.975 97.7328 112.462L53.0019 103.606L52.9957 102.45L97.8375 93.0371C98.1303 91.3327 98.4997 89.651 98.9373 87.9873C94.4207 83.2541 88.5328 80.5795 81.9683 79.0371C73.1834 76.9729 65.3772 73.0555 60.1492 63.9251L60.9302 63.1185C69.0364 68.1198 76.7494 70.0791 85.8374 68.2593C92.3677 66.9516 99.2093 67.5914 106.465 70.8752C106.746 70.4402 107.034 70.0036 107.329 69.5743L81.7586 30.5815L82.5444 29.7598L120.64 55.9533C122.007 54.9621 123.419 54.0324 124.89 53.1617C124.92 46.5251 122.578 40.3111 118.997 34.4276C114.195 26.5365 111.379 18.0784 113.919 7.79622L114.47 7.94219L115.022 7.79759C117.338 17.2683 121.424 24.2748 129.092 29.6399C134.606 33.4973 138.996 38.9735 141.879 46.6101C142.371 46.5087 142.865 46.412 143.361 46.3246L151.947 0.0056279ZM114.536 10.409C113.024 19.2363 115.629 26.6832 119.96 33.7994C123.672 39.8975 126.142 46.4475 126.025 53.5169L126.019 53.8543L125.735 54.0201C124.081 54.9859 122.503 56.027 120.979 57.1477L120.66 57.3822L84.3272 32.4003L108.718 69.5945L108.484 69.9291C108.027 70.5821 107.58 71.2629 107.148 71.9403L106.881 72.3587L106.439 72.1527C99.2274 68.7896 92.4791 68.1297 86.0536 69.4164C77.4065 71.1479 69.9567 69.5579 62.3708 65.3207C67.3362 72.6683 74.2958 76.0259 82.2203 77.8878C89.0236 79.4864 95.2311 82.3046 99.9827 87.409L100.208 87.6514L100.121 87.9758C99.6203 89.8392 99.207 91.7227 98.8928 93.6335L98.8273 94.0318L56.0537 103.011L98.7288 111.459L98.7918 111.867C98.914 112.659 99.0616 113.451 99.2193 114.249L99.3165 114.741L98.8631 114.918C91.4634 117.816 86.2232 122.279 82.5584 127.892C77.6272 135.445 71.3051 139.776 63.051 142.334C71.5753 143.894 78.7575 141.17 85.6333 136.685C91.5241 132.843 97.8515 130.286 104.681 130.408L105.007 130.414L105.167 130.708C106.1 132.42 107.105 134.054 108.188 135.631L108.414 135.961L84.2937 173.605L120.244 148.31L120.567 148.552C120.649 148.613 120.73 148.674 120.811 148.735C121.368 149.153 121.919 149.567 122.478 149.949L122.882 150.225L122.683 150.682C119.435 158.147 118.81 165.166 120.053 171.819C121.726 180.77 120.178 188.454 116.084 196.301C123.181 191.161 126.425 183.956 128.223 175.753C129.767 168.711 132.49 162.285 137.421 157.366L137.655 157.132L137.968 157.223C139.772 157.743 141.584 158.168 143.434 158.494L143.818 158.562L152.492 202.841L160.653 158.664L161.048 158.599C161.812 158.472 162.577 158.32 163.349 158.156L163.824 158.056L163.995 158.525C166.793 166.187 171.106 171.61 176.528 175.403C183.824 180.508 188.008 187.053 190.478 195.597C191.986 186.773 189.354 179.338 185.022 172.22C181.303 166.109 178.86 159.579 178.991 152.488L178.997 152.151L179.28 151.986C180.923 151.025 182.489 149.986 184.004 148.872L184.322 148.638L220.692 173.61L196.284 136.378L196.518 136.044C196.968 135.399 197.414 134.738 197.835 134.079L198.102 133.661L198.544 133.867C205.756 137.239 212.531 137.877 218.962 136.59C227.609 134.858 235.031 136.46 242.611 140.698C237.648 133.357 230.701 130.027 222.776 128.165C215.977 126.568 209.778 123.695 205.032 118.597L204.807 118.354L204.894 118.03C205.392 116.175 205.775 114.3 206.09 112.386L206.155 111.988L248.942 103.04L206.254 94.5605L206.191 94.1526C206.069 93.3611 205.921 92.5693 205.763 91.7707L205.666 91.2788L206.12 91.1014C213.526 88.206 218.759 83.7422 222.424 78.1276C227.356 70.5733 233.69 66.2712 241.945 63.7191C233.417 62.1542 226.224 64.8509 219.349 69.3343C213.446 73.1845 207.137 75.7132 200.288 75.5783L199.963 75.5719L199.803 75.279C198.875 73.5782 197.871 71.9571 196.795 70.3888L196.568 70.0588L220.705 32.4414L184.725 57.6761L184.402 57.4344C183.78 56.9685 183.141 56.5062 182.505 56.071L182.1 55.7944L182.3 55.337C185.553 47.8741 186.186 40.8863 184.943 34.2344C183.27 25.2832 184.806 17.5713 188.899 9.71866C181.807 14.8564 178.591 22.0484 176.792 30.2524C175.246 37.3053 172.475 43.751 167.529 48.6683L167.295 48.9009L166.982 48.811C165.186 48.2946 163.382 47.8484 161.549 47.5255L161.164 47.4576L152.521 3.16597L144.329 47.3557L143.935 47.4209C143.171 47.5473 142.406 47.7001 141.634 47.8635L141.159 47.9641L140.988 47.4946C138.189 39.8326 133.878 34.4107 128.455 30.6163C121.157 25.5109 117.001 18.9539 114.536 10.409Z" fill="#843511"/>
</g>
</g>
<g id="layer1" filter="url(#filter1_d)">
<g id="g4449">
<path id="path2844" d="M86.2411 90.738C83.2992 108.871 102.117 127.01 128.272 131.254C154.427 135.497 178.015 124.238 180.957 106.105C183.899 87.9724 165.081 69.8329 138.926 65.5894C112.771 61.3459 89.183 72.6053 86.2411 90.738Z" fill="#75AADB"/>
<path id="path2844 3" d="M88.1638 92.211C85.2434 110.211 103.219 128.104 128.312 132.176C153.406 136.247 176.117 124.955 179.037 106.955C181.958 88.9541 163.982 71.0613 138.888 66.99C113.794 62.9187 91.0843 74.2105 88.1638 92.211Z" fill="#EEEEEC"/>
<path id="path2844 9" d="M77.5456 132.056C74.8767 148.506 89.9187 164.633 111.143 168.076C132.367 171.52 151.736 160.976 154.405 144.526C157.074 128.075 142.032 111.948 120.808 108.505C99.5838 105.061 80.2146 115.605 77.5456 132.056Z" fill="#EEEEEC"/>
<path id="path2844 5" d="M51.0018 104.127C48.3329 120.577 63.3749 136.704 84.5991 140.148C105.823 143.591 125.193 133.047 127.862 116.597C130.531 100.147 115.489 84.0195 94.2643 80.576C73.0401 77.1325 53.6708 87.6766 51.0018 104.127Z" fill="#75AADB"/>
<path id="path2844 11" d="M134.864 127.46C132.195 143.91 147.237 160.037 168.461 163.481C189.685 166.924 209.055 156.38 211.724 139.93C214.393 123.48 199.351 107.353 178.126 103.909C156.902 100.466 137.533 111.01 134.864 127.46Z" fill="#75AADB"/>
<path id="path2844 11 1" d="M130.899 128.375C128.23 144.825 143.702 161.022 165.457 164.552C187.212 168.081 207.011 157.607 209.68 141.157C212.349 124.707 196.877 108.51 175.122 104.98C153.367 101.451 133.568 111.925 130.899 128.375Z" fill="#EEEEEC"/>
<path id="path2844 1" d="M176.441 160.954C174.287 174.226 186.271 187.213 203.208 189.961C220.144 192.709 235.62 184.177 237.773 170.905C239.927 157.632 227.942 144.645 211.006 141.898C194.069 139.15 178.594 147.682 176.441 160.954Z" fill="#75AADB"/>
<path id="path2844 1 76" d="M175.486 161.387C173.463 173.858 185.306 186.155 201.94 188.854C218.573 191.553 233.697 183.631 235.721 171.159C237.744 158.688 225.9 146.39 209.267 143.692C192.634 140.993 177.509 148.915 175.486 161.387Z" fill="#EEEEEC"/>
<path id="path2844 5 4" d="M49.8738 106.878C47.0761 124.121 62.3211 140.941 83.9243 144.446C105.528 147.951 125.308 136.814 128.106 119.571C130.904 102.327 115.659 85.5073 94.0554 82.0023C72.4522 78.4973 52.6714 89.6345 49.8738 106.878Z" fill="#EEEEEC"/>
<path id="path2844 2" d="M11.3127 108.109C8.64373 124.56 23.6858 140.687 44.91 144.13C66.1342 147.574 85.5035 137.03 88.1724 120.579C90.8414 104.129 75.7994 88.0019 54.5751 84.5584C33.3509 81.1149 13.9816 91.659 11.3127 108.109Z" fill="#75AADB"/>
<path id="path2844 2 2" d="M12.4768 108.179C9.95794 123.704 25.2446 139.101 46.6204 142.569C67.9962 146.037 87.3666 136.263 89.8855 120.738C92.4043 105.213 77.1177 89.8165 55.7419 86.3484C34.366 82.8803 14.9956 92.6543 12.4768 108.179Z" fill="#EEEEEC"/>
<path id="path2844 1 7" d="M170.981 179.869C169.556 188.655 176.395 197.075 186.257 198.675C196.118 200.275 205.269 194.449 206.694 185.663C208.119 176.877 201.28 168.458 191.419 166.858C181.557 165.258 172.407 171.083 170.981 179.869Z" fill="#75AADB"/>
<path id="path2844 1 7 2" d="M170.598 178.785C169.194 187.439 175.927 195.731 185.638 197.307C195.348 198.882 204.358 193.144 205.762 184.49C207.166 175.837 200.432 167.544 190.722 165.969C181.012 164.393 172.002 170.132 170.598 178.785Z" fill="#EEEEEC"/>
<path id="path2844 4" d="M106.536 164.55C103.867 181 118.909 197.127 140.133 200.571C161.357 204.014 180.727 193.47 183.396 177.02C186.065 160.569 171.023 144.442 149.798 140.999C128.574 137.555 109.205 148.099 106.536 164.55Z" fill="#75AADB"/>
<path id="path2844 4 2" d="M106.451 163.743C103.839 179.846 118.522 195.625 139.247 198.988C159.972 202.35 178.891 192.022 181.503 175.919C184.116 159.817 169.433 144.037 148.708 140.674C127.983 137.312 109.064 147.64 106.451 163.743Z" fill="#EEEEEC"/>
<path id="path2844 8" d="M24.1091 137.281C21.4401 153.731 36.4822 169.858 57.7064 173.302C78.9306 176.745 98.2999 166.201 100.969 149.751C103.638 133.301 88.5958 117.174 67.3715 113.73C46.1473 110.287 26.778 120.831 24.1091 137.281Z" fill="#75AADB"/>
<path id="path2844 1 7 6" d="M92.4808 186.815C104.447 190.57 117.137 185.582 120.824 175.673C124.51 165.765 117.798 154.688 105.831 150.934C93.8649 147.179 81.1754 152.167 77.4886 162.076C73.802 171.984 80.5142 183.06 92.4808 186.815Z" fill="#75AADB"/>
<path id="path2844 1 7 6 5" d="M92.3079 184.865C104.069 188.586 116.564 183.566 120.217 173.653C123.87 163.739 117.296 152.685 105.535 148.963C93.7745 145.242 81.2792 150.262 77.6265 160.176C73.9738 170.09 80.5469 181.143 92.3079 184.865Z" fill="#EEEEEC"/>
<path id="path2844 8 1" d="M26.2133 137.244C23.6462 153.066 38.8015 168.69 60.0637 172.139C81.3258 175.589 100.643 165.559 103.21 149.736C105.777 133.914 90.6221 118.291 69.3599 114.841C48.0978 111.392 28.7804 121.422 26.2133 137.244Z" fill="#EEEEEC"/>
</g>
</g>
</g>
<g id="ArgenClima" filter="url(#filter2_d)">
<path d="M33.7985 221.896V220.502C33.7985 217.851 33.2791 215.951 32.2405 214.803C31.2018 213.628 29.7395 213.04 27.8535 213.04C26.9788 213.04 26.1315 213.218 25.3115 213.573C24.4915 213.928 23.7398 214.475 23.0565 215.213C22.4005 215.951 21.8128 216.88 21.2935 218.001C20.8015 219.094 20.4325 220.393 20.1865 221.896H33.7985ZM19.9815 224.52C19.9815 226.324 20.1455 227.923 20.4735 229.317C20.8015 230.684 21.2525 231.845 21.8265 232.802C22.0725 233.212 22.2365 233.567 22.3185 233.868C22.4278 234.169 22.4825 234.469 22.4825 234.77C22.4825 235.235 22.2638 235.645 21.8265 236C21.4165 236.383 20.8561 236.574 20.1455 236.574C19.6808 236.574 19.2161 236.424 18.7515 236.123C18.3141 235.822 17.9315 235.358 17.6035 234.729C17.0841 233.718 16.6741 232.488 16.3735 231.039C16.0728 229.563 15.9225 228.06 15.9225 226.529C15.9225 224.178 16.2641 222.019 16.9475 220.051C17.6581 218.056 18.6148 216.347 19.8175 214.926C21.0475 213.477 22.4551 212.357 24.0405 211.564C25.6531 210.744 27.3615 210.334 29.1655 210.334C32.1448 210.334 34.3725 211.086 35.8485 212.589C37.3245 214.065 38.0625 216.375 38.0625 219.518V234.852C38.0625 235.371 37.8848 235.781 37.5295 236.082C37.1741 236.41 36.6411 236.574 35.9305 236.574C35.2198 236.574 34.6868 236.41 34.3315 236.082C33.9761 235.781 33.7985 235.371 33.7985 234.852V224.52H19.9815ZM47.6991 225.914C48.4917 223.618 49.5577 221.951 50.8971 220.912C52.2637 219.846 53.6987 219.313 55.2021 219.313C56.7601 219.313 57.9901 219.655 58.8921 220.338C59.8214 220.994 60.2861 221.732 60.2861 222.552C60.2861 223.126 60.0948 223.618 59.7121 224.028C59.3294 224.438 58.8101 224.643 58.1541 224.643C57.2247 224.643 56.5004 224.247 55.9811 223.454C55.6804 222.989 55.3524 222.661 54.9971 222.47C54.6691 222.279 54.2727 222.183 53.8081 222.183C53.1794 222.183 52.5097 222.497 51.7991 223.126C51.1157 223.755 50.4734 224.575 49.8721 225.586C49.2981 226.57 48.8197 227.704 48.4371 228.989C48.0544 230.246 47.8631 231.504 47.8631 232.761V234.852C47.8631 235.317 47.6991 235.699 47.3711 236C47.0704 236.328 46.5511 236.492 45.8131 236.492C45.1024 236.492 44.5831 236.328 44.2551 236C43.9544 235.699 43.8041 235.317 43.8041 234.852V221.322C43.8041 220.857 43.9544 220.475 44.2551 220.174C44.5557 219.846 45.0477 219.682 45.7311 219.682C46.4417 219.682 46.9474 219.846 47.2481 220.174C47.5487 220.475 47.6991 220.857 47.6991 221.322V225.914ZM83.3816 234.893C83.3816 235.33 83.4226 235.699 83.5046 236C83.5866 236.301 83.6276 236.615 83.6276 236.943C83.6276 238.337 83.2449 239.731 82.4796 241.125C81.7416 242.519 80.7302 243.776 79.4456 244.897C78.1609 246.018 76.6439 246.92 74.8946 247.603C73.1726 248.314 71.3139 248.669 69.3186 248.669C67.0772 248.669 65.3826 248.232 64.2346 247.357C63.1139 246.51 62.5536 245.485 62.5536 244.282C62.5536 243.544 62.7449 242.943 63.1276 242.478C63.5376 242.041 64.0296 241.822 64.6036 241.822C65.0956 241.822 65.4646 241.918 65.7106 242.109C65.9839 242.328 66.2026 242.587 66.3666 242.888C66.5306 243.189 66.6946 243.503 66.8586 243.831C67.0226 244.186 67.2549 244.514 67.5556 244.815C67.8562 245.116 68.2526 245.362 68.7446 245.553C69.2639 245.772 69.9472 245.881 70.7946 245.881C72.0519 245.881 73.1999 245.676 74.2386 245.266C75.2772 244.856 76.1656 244.282 76.9036 243.544C77.6689 242.833 78.2566 241.959 78.6666 240.92C79.1039 239.909 79.3226 238.788 79.3226 237.558V232.023C78.0926 233.417 76.6439 234.524 74.9766 235.344C73.3092 236.164 71.5326 236.574 69.6466 236.574C67.1592 236.574 65.3552 236.096 64.2346 235.139C63.1412 234.155 62.5946 232.829 62.5946 231.162C62.5946 229.741 62.9772 228.333 63.7426 226.939C64.5079 225.518 65.5466 224.247 66.8586 223.126C68.1706 221.978 69.6739 221.062 71.3686 220.379C73.0906 219.668 74.8946 219.313 76.7806 219.313C79.2406 219.313 81.0309 219.778 82.1516 220.707C83.2722 221.636 83.8326 222.853 83.8326 224.356C83.8326 224.821 83.7506 225.285 83.5866 225.75C83.4499 226.215 83.3816 226.638 83.3816 227.021V234.893ZM75.3456 221.732C74.1429 221.732 73.0359 221.964 72.0246 222.429C71.0132 222.866 70.1249 223.454 69.3596 224.192C68.6216 224.93 68.0339 225.777 67.5966 226.734C67.1866 227.691 66.9816 228.675 66.9816 229.686C66.9816 230.971 67.3369 231.968 68.0476 232.679C68.7856 233.362 69.8242 233.704 71.1636 233.704C72.3116 233.704 73.3912 233.485 74.4026 233.048C75.4139 232.583 76.2886 231.982 77.0266 231.244C77.7919 230.506 78.3932 229.659 78.8306 228.702C79.2952 227.745 79.5276 226.748 79.5276 225.709C79.5276 224.506 79.1449 223.55 78.3796 222.839C77.6416 222.101 76.6302 221.732 75.3456 221.732ZM184.558 234.77C184.558 235.235 184.394 235.631 184.066 235.959C183.738 236.26 183.205 236.41 182.467 236.41C181.757 236.41 181.237 236.26 180.909 235.959C180.581 235.631 180.417 235.235 180.417 234.77V221.117C180.417 220.652 180.581 220.27 180.909 219.969C181.237 219.641 181.757 219.477 182.467 219.477C183.205 219.477 183.738 219.641 184.066 219.969C184.394 220.27 184.558 220.652 184.558 221.117V234.77ZM182.467 215.746C181.647 215.746 181.046 215.582 180.663 215.254C180.281 214.899 180.089 214.489 180.089 214.024V212.466C180.089 212.001 180.281 211.605 180.663 211.277C181.046 210.922 181.647 210.744 182.467 210.744C183.26 210.744 183.848 210.922 184.23 211.277C184.64 211.605 184.845 212.001 184.845 212.466V214.024C184.845 214.489 184.64 214.899 184.23 215.254C183.848 215.582 183.26 215.746 182.467 215.746ZM200.434 219.313C201.719 219.313 202.73 219.723 203.468 220.543C204.206 221.363 204.602 222.552 204.657 224.11C205.532 222.388 206.502 221.158 207.568 220.42C208.634 219.682 209.905 219.313 211.381 219.313C212.31 219.313 213.103 219.463 213.759 219.764C214.442 220.037 215.003 220.434 215.44 220.953C215.877 221.445 216.205 222.033 216.424 222.716C216.643 223.372 216.752 224.083 216.752 224.848C216.752 225.695 216.629 226.638 216.383 227.677C216.164 228.688 215.85 229.713 215.44 230.752C215.057 231.763 214.593 232.734 214.046 233.663C213.527 234.565 212.953 235.33 212.324 235.959C212.023 236.26 211.75 236.451 211.504 236.533C211.258 236.615 210.998 236.656 210.725 236.656C210.37 236.656 210.055 236.533 209.782 236.287C209.536 236.041 209.413 235.781 209.413 235.508C209.413 235.371 209.44 235.235 209.495 235.098C209.577 234.934 209.727 234.715 209.946 234.442C210.247 234.032 210.534 233.513 210.807 232.884C211.108 232.255 211.367 231.558 211.586 230.793C211.832 230.028 212.023 229.221 212.16 228.374C212.297 227.527 212.365 226.707 212.365 225.914C212.365 223.126 211.49 221.732 209.741 221.732C209.112 221.732 208.497 221.978 207.896 222.47C207.322 222.935 206.803 223.591 206.338 224.438C205.873 225.258 205.491 226.242 205.19 227.39C204.917 228.511 204.78 229.741 204.78 231.08V234.852C204.78 235.317 204.616 235.699 204.288 236C203.987 236.328 203.468 236.492 202.73 236.492C202.019 236.492 201.5 236.328 201.172 236C200.871 235.699 200.721 235.317 200.721 234.852V225.34C200.721 224.001 200.571 223.071 200.27 222.552C199.997 222.005 199.546 221.732 198.917 221.732C198.37 221.732 197.824 221.978 197.277 222.47C196.758 222.962 196.279 223.632 195.842 224.479C195.405 225.299 195.049 226.283 194.776 227.431C194.503 228.552 194.366 229.754 194.366 231.039V234.852C194.366 235.317 194.202 235.699 193.874 236C193.573 236.328 193.054 236.492 192.316 236.492C191.605 236.492 191.086 236.328 190.758 236C190.457 235.699 190.307 235.317 190.307 234.852V221.322C190.307 220.857 190.457 220.475 190.758 220.174C191.059 219.846 191.551 219.682 192.234 219.682C192.945 219.682 193.45 219.846 193.751 220.174C194.052 220.475 194.202 220.857 194.202 221.322V224.561C194.858 222.648 195.692 221.295 196.703 220.502C197.714 219.709 198.958 219.313 200.434 219.313ZM234.814 219.313C237.274 219.313 239.064 219.778 240.185 220.707C241.305 221.636 241.866 222.853 241.866 224.356C241.866 224.821 241.784 225.285 241.62 225.75C241.483 226.215 241.415 226.638 241.415 227.021V234.77C241.415 235.235 241.251 235.631 240.923 235.959C240.622 236.26 240.116 236.41 239.406 236.41C238.668 236.41 238.135 236.26 237.807 235.959C237.506 235.631 237.356 235.235 237.356 234.77V232.023C236.126 233.417 234.677 234.524 233.01 235.344C231.342 236.164 229.566 236.574 227.68 236.574C225.192 236.574 223.388 236.096 222.268 235.139C221.174 234.155 220.628 232.829 220.628 231.162C220.628 229.741 221.01 228.333 221.776 226.939C222.541 225.518 223.58 224.247 224.892 223.126C226.204 221.978 227.707 221.062 229.402 220.379C231.124 219.668 232.928 219.313 234.814 219.313ZM233.379 221.732C232.176 221.732 231.069 221.964 230.058 222.429C229.046 222.866 228.158 223.454 227.393 224.192C226.655 224.93 226.067 225.777 225.63 226.734C225.22 227.691 225.015 228.675 225.015 229.686C225.015 230.971 225.37 231.968 226.081 232.679C226.819 233.362 227.857 233.704 229.197 233.704C230.345 233.704 231.424 233.485 232.436 233.048C233.447 232.583 234.322 231.982 235.06 231.244C235.825 230.506 236.426 229.659 236.864 228.702C237.328 227.745 237.561 226.748 237.561 225.709C237.561 224.506 237.178 223.55 236.413 222.839C235.675 222.101 234.663 221.732 233.379 221.732Z" fill="#75AADB"/>
<path d="M102.124 219.313C104.448 219.313 106.142 219.709 107.208 220.502C108.302 221.295 108.848 222.265 108.848 223.413C108.848 224.752 108.37 225.9 107.413 226.857C106.484 227.786 104.885 228.442 102.616 228.825L92.4073 230.547C92.4073 231.558 92.6807 232.365 93.2273 232.966C93.8013 233.54 94.84 233.827 96.3433 233.827C97.71 233.827 98.9673 233.663 100.115 233.335C101.291 233.007 102.411 232.583 103.477 232.064C103.969 231.818 104.352 231.695 104.625 231.695C105.254 231.695 105.568 232.078 105.568 232.843C105.568 233.308 105.281 233.69 104.707 233.991C101.537 235.713 98.3523 236.574 95.1543 236.574C93.8697 236.574 92.7627 236.437 91.8333 236.164C90.9313 235.891 90.1933 235.522 89.6193 235.057C89.0453 234.565 88.6217 233.991 88.3483 233.335C88.075 232.679 87.9383 231.968 87.9383 231.203C87.9383 229.782 88.321 228.36 89.0863 226.939C89.8517 225.518 90.8767 224.247 92.1613 223.126C93.4733 222.005 94.9767 221.09 96.6713 220.379C98.3933 219.668 100.211 219.313 102.124 219.313ZM100.771 221.65C99.8147 221.65 98.8717 221.828 97.9423 222.183C97.013 222.538 96.1657 223.017 95.4003 223.618C94.6623 224.219 94.02 224.916 93.4733 225.709C92.954 226.474 92.6123 227.267 92.4483 228.087L101.386 226.652C102.753 226.433 103.641 226.119 104.051 225.709C104.489 225.299 104.707 224.78 104.707 224.151C104.707 223.495 104.379 222.921 103.723 222.429C103.067 221.91 102.083 221.65 100.771 221.65ZM116.446 224.684C118.66 221.103 121.967 219.313 126.368 219.313C128.773 219.313 130.55 219.791 131.698 220.748C132.846 221.705 133.42 222.962 133.42 224.52C133.42 225.367 133.27 226.283 132.969 227.267C132.668 228.251 132.245 229.249 131.698 230.26C131.179 231.271 130.536 232.269 129.771 233.253C129.006 234.21 128.172 235.084 127.27 235.877C126.969 236.178 126.696 236.369 126.45 236.451C126.231 236.533 125.985 236.574 125.712 236.574C125.357 236.574 125.042 236.437 124.769 236.164C124.523 235.918 124.4 235.658 124.4 235.385C124.4 235.248 124.427 235.112 124.482 234.975C124.537 234.811 124.673 234.62 124.892 234.401C125.548 233.718 126.122 232.993 126.614 232.228C127.133 231.435 127.557 230.67 127.885 229.932C128.24 229.167 128.514 228.442 128.705 227.759C128.896 227.076 128.992 226.461 128.992 225.914C128.992 224.493 128.623 223.44 127.885 222.757C127.174 222.074 126.163 221.732 124.851 221.732C123.812 221.732 122.787 221.964 121.776 222.429C120.792 222.894 119.917 223.55 119.152 224.397C118.387 225.217 117.772 226.201 117.307 227.349C116.842 228.47 116.61 229.7 116.61 231.039V234.852C116.61 235.317 116.446 235.699 116.118 236C115.817 236.328 115.298 236.492 114.56 236.492C113.849 236.492 113.33 236.328 113.002 236C112.701 235.699 112.551 235.317 112.551 234.852V221.322C112.551 220.857 112.701 220.475 113.002 220.174C113.303 219.846 113.795 219.682 114.478 219.682C115.189 219.682 115.694 219.846 115.995 220.174C116.296 220.475 116.446 220.857 116.446 221.322V224.684ZM150.39 233.745C151.456 233.745 152.454 233.636 153.383 233.417C154.34 233.171 155.215 232.857 156.007 232.474C156.827 232.091 157.565 231.654 158.221 231.162C158.905 230.643 159.492 230.096 159.984 229.522C160.312 229.139 160.627 228.852 160.927 228.661C161.255 228.47 161.652 228.374 162.116 228.374C162.554 228.374 162.895 228.483 163.141 228.702C163.387 228.921 163.51 229.221 163.51 229.604C163.51 230.041 163.305 230.479 162.895 230.916C162.185 231.681 161.324 232.406 160.312 233.089C159.328 233.772 158.249 234.374 157.073 234.893C155.898 235.412 154.668 235.822 153.383 236.123C152.099 236.424 150.814 236.574 149.529 236.574C147.425 236.574 145.593 236.355 144.035 235.918C142.477 235.453 141.179 234.825 140.14 234.032C139.129 233.212 138.364 232.242 137.844 231.121C137.352 230 137.106 228.757 137.106 227.39C137.106 225.969 137.339 224.561 137.803 223.167C138.268 221.773 138.924 220.447 139.771 219.19C140.619 217.905 141.63 216.73 142.805 215.664C144.008 214.598 145.334 213.669 146.782 212.876C148.231 212.083 149.789 211.468 151.456 211.031C153.151 210.566 154.9 210.334 156.704 210.334C159.192 210.334 161.228 210.662 162.813 211.318C164.399 211.974 165.56 212.78 166.298 213.737C166.654 214.174 166.831 214.694 166.831 215.295C166.831 215.869 166.599 216.361 166.134 216.771C165.67 217.181 165.068 217.386 164.33 217.386C163.948 217.386 163.565 217.29 163.182 217.099C162.8 216.88 162.458 216.593 162.157 216.238C161.255 215.145 160.203 214.366 159 213.901C157.825 213.409 156.445 213.163 154.859 213.163C153.055 213.163 151.361 213.518 149.775 214.229C148.217 214.912 146.851 215.855 145.675 217.058C144.527 218.233 143.612 219.6 142.928 221.158C142.245 222.689 141.903 224.301 141.903 225.996C141.903 227.089 142.095 228.114 142.477 229.071C142.887 230 143.448 230.82 144.158 231.531C144.896 232.214 145.785 232.761 146.823 233.171C147.889 233.554 149.078 233.745 150.39 233.745ZM174.669 234.77C174.669 235.235 174.505 235.631 174.177 235.959C173.849 236.26 173.316 236.41 172.578 236.41C171.867 236.41 171.348 236.26 171.02 235.959C170.692 235.631 170.528 235.235 170.528 234.77V208.858C170.528 208.393 170.692 208.011 171.02 207.71C171.348 207.382 171.867 207.218 172.578 207.218C173.316 207.218 173.849 207.382 174.177 207.71C174.505 208.011 174.669 208.393 174.669 208.858V234.77Z" fill="#FFFBFB"/>
</g>
</g>
<defs>
<filter id="filter0_d" x="48.9957" y="0" width="207.004" height="214.006" filterUnits="userSpaceOnUse" color-interpolation-filters="sRGB">
<feFlood flood-opacity="0" result="BackgroundImageFix"/>
<feColorMatrix in="SourceAlpha" type="matrix" values="0 0 0 0 0 0 0 0 0 0 0 0 0 0 0 0 0 0 127 0"/>
<feOffset dy="4"/>
<feGaussianBlur stdDeviation="2"/>
<feColorMatrix type="matrix" values="0 0 0 0 0 0 0 0 0 0 0 0 0 0 0 0 0 0 0.25 0"/>
<feBlend mode="normal" in2="BackgroundImageFix" result="effect1_dropShadow"/>
<feBlend mode="normal" in="SourceGraphic" in2="effect1_dropShadow" result="shape"/>
</filter>
<filter id="filter1_d" x="7.00592" y="64.6948" width="235.017" height="144.527" filterUnits="userSpaceOnUse" color-interpolation-filters="sRGB">
<feFlood flood-opacity="0" result="BackgroundImageFix"/>
<feColorMatrix in="SourceAlpha" type="matrix" values="0 0 0 0 0 0 0 0 0 0 0 0 0 0 0 0 0 0 127 0"/>
<feOffset dy="4"/>
<feGaussianBlur stdDeviation="2"/>
<feColorMatrix type="matrix" values="0 0 0 0 0 0 0 0 0 0 0 0 0 0 0 0 0 0 0.25 0"/>
<feBlend mode="normal" in2="BackgroundImageFix" result="effect1_dropShadow"/>
<feBlend mode="normal" in="SourceGraphic" in2="effect1_dropShadow" result="shape"/>
</filter>
<filter id="filter2_d" x="13.9225" y="206.218" width="231.943" height="47.451" filterUnits="userSpaceOnUse" color-interpolation-filters="sRGB">
<feFlood flood-opacity="0" result="BackgroundImageFix"/>
<feColorMatrix in="SourceAlpha" type="matrix" values="0 0 0 0 0 0 0 0 0 0 0 0 0 0 0 0 0 0 127 0"/>
<feOffset dx="1" dy="2"/>
<feGaussianBlur stdDeviation="1.5"/>
<feColorMatrix type="matrix" values="0 0 0 0 0 0 0 0 0 0 0 0 0 0 0 0 0 0 0.5 0"/>
<feBlend mode="normal" in2="BackgroundImageFix" result="effect1_dropShadow"/>
<feBlend mode="normal" in="SourceGraphic" in2="effect1_dropShadow" result="shape"/>
</filter>
</defs>
</svg>
