<svg width="1029" height="911" viewBox="0 0 1029 911" fill="none" xmlns="http://www.w3.org/2000/svg">
<g id="Expo">
<path id="Vector" d="M638.85 65.3728C600.979 7.66439 591.962 0 514.867 0H513.965H513.063C435.969 0 427.403 7.66439 389.081 65.3728C353.464 119.474 0 766.89 0 784.924C0 811.073 6.7627 835.87 31.1084 871.036C55.905 906.653 98.7354 926.49 129.844 894.931C151.034 873.741 377.809 482.857 487.365 334.979C500.44 316.494 527.491 316.494 541.016 334.979C650.572 482.857 877.348 873.741 898.537 894.931C929.646 926.49 972.476 906.653 997.273 871.036C1021.62 835.87 1028.38 811.073 1028.38 784.924C1027.93 766.89 674.467 119.024 638.85 65.3728Z" fill="black"/>
</g>
</svg>
