<svg width="1309" height="1488" viewBox="0 0 1309 1488" fill="none" xmlns="http://www.w3.org/2000/svg">
<g id="javaScript">
<path id="path5113" d="M121.506 1337.59L0 0L1309 0.510523L1188.51 1336.57L653.479 1487.69L121.506 1337.59ZM1089.98 1264.58L1191.58 118.954H655.521L659.605 1382.52L1089.98 1264.58ZM605.489 286.918H475.304L473.772 972.56L221.06 903.639L221.57 1060.37L605.489 1164.01V286.918Z" fill="#F1BF22"/>
<path id="path5117" d="M655.521 118.443H1191.58L1089.98 1264.07L655.521 1382.01V118.443ZM1062.41 1072.11L1097.64 643.779L837.27 672.879V444.161L1115 443.14L1126.23 286.918L707.085 288.96L712.7 857.691L965.924 814.296L962.35 940.908L707.085 1008.81L709.637 1164.01L1062.41 1072.11Z" fill="#E6A329"/>
</g>
</svg>
