<svg width="1075" height="1018" viewBox="0 0 1075 1018" fill="none" xmlns="http://www.w3.org/2000/svg">
<g id="react-bootstrap">
<rect x="0.5" y="0.5" width="1073.67" height="1017" rx="98.5" fill="black"/>
<path id="Vector" d="M949.701 541.213C934.341 512.935 911.743 494.59 881.907 486.176C881.676 486.085 881.481 485.922 881.349 485.712C881.218 485.502 881.156 485.255 881.173 485.008C881.162 484.791 881.208 484.576 881.306 484.383C881.405 484.19 881.553 484.026 881.735 483.909C903.948 471.543 921.021 453.932 932.988 431.467C945.042 408.81 951.071 381.545 951.073 349.673C951.073 297.088 937.784 257.972 911.324 231.952C884.863 205.932 849.639 193 805.786 193H568.93C568.418 193 568 193.537 568 194.201V823.799C568 824.463 568.41 825 568.93 825H792.771C824.283 825 851.464 820.395 874.314 811.186C897.211 801.994 915.841 789.587 930.506 774.006C945.172 758.425 955.865 739.839 962.721 718.243C969.576 696.828 973 673.633 973 648.852C973.016 605.648 965.186 569.894 949.701 541.213ZM653.884 283.721C653.884 283.057 654.294 282.52 654.814 282.52H793.835C817.159 282.52 834.998 289.08 847.342 302.016C859.685 314.952 865.853 337.442 865.853 369.333C865.853 397.698 858.997 419.323 845.273 434.559C831.55 449.795 814.406 457.241 793.823 457.241H654.806C654.294 457.241 653.876 456.704 653.876 456.04L653.884 283.721ZM866.09 708.419C851.814 725.952 831.521 734.66 805.45 734.66H654.806C654.294 734.66 653.876 734.123 653.876 733.459V538.126C653.876 537.461 654.285 536.924 654.806 536.924H805.442C831.513 536.924 851.543 545.08 866.082 562.079C880.621 579.078 887.759 603.007 887.759 634.366C887.767 666.253 880.485 691.059 866.09 708.419V708.419Z" fill="#41E0FD"/>
<path id="&#60;Group&#62;" d="M414.422 507.368C420.986 493.992 427.894 480.564 435.004 467.451L435.065 467.34L442.609 452.71L453.751 434.259L453.821 434.14C457.98 427.062 462.296 419.92 466.649 412.908L474.316 400.25C484.522 383.361 492.727 371.043 505.67 353.195C512.643 343.587 519.256 335.153 529.733 322.065L529.758 322.04L530.275 321.388L530.476 321.13C534.73 315.709 539.025 310.366 543.238 305.249L543.378 305.077L543.46 304.974C553.235 292.874 563.2 280.729 573.074 268.891L577 264.184V194.663H569.899C566.113 191.104 562.244 187.569 558.38 184.129C527.071 156.361 495.849 134.576 465.557 119.429C434.499 103.881 405.816 96 380.312 96C362.102 96 345.828 100.076 331.942 108.108C318.589 115.833 307.369 127.343 298.586 142.322C290.357 156.357 284.294 173.439 280.557 193.088C273.361 230.963 274.92 278.375 285.069 330.179C286.349 336.699 287.76 343.3 289.274 349.861C281.176 352.321 273.312 354.855 265.838 357.459C216.914 374.508 175.998 396.785 147.52 421.892C132.752 434.894 121.331 448.638 113.516 462.74C105.213 477.735 101 493.115 101 508.454C101 539.207 118.045 570.37 150.289 598.638C180.646 625.261 223.576 648.506 274.403 665.883C279.125 667.487 283.929 669.045 288.761 670.533C287.071 677.885 285.508 685.294 284.101 692.675C274.436 743.552 273.308 790.108 280.819 827.31C284.721 846.582 290.915 863.348 299.235 877.158C308.079 891.837 319.307 903.171 332.602 910.834C346.612 918.908 363.099 923 381.604 923C406.8 923 434.971 915.533 465.336 900.805C495.102 886.367 525.488 865.689 555.639 839.345C560.287 835.285 565.075 830.943 569.858 826.416H577V754.91L574.399 751.712L573.168 750.207L540.424 709.798L522.23 687.349C513.045 676.015 498.335 655.042 480.797 628.304C466.85 607.047 456.692 589.978 451.876 581.711L451.351 580.805C442.946 566.319 436.702 554.649 431.689 545.28C425.413 533.54 419.222 521.551 413.266 509.607L414.357 507.487L414.422 507.368ZM381.251 436.477C375.701 422.249 370.618 408.131 366.073 394.321C380.255 391.398 394.998 388.773 410.099 386.485C405.061 394.731 400.114 403.055 395.33 411.35C390.547 419.645 385.846 428.034 381.251 436.477V436.477ZM365.56 625.954C370.257 611.66 375.533 597.022 381.309 582.248C385.94 590.736 390.691 599.183 395.495 607.478C400.528 616.167 405.75 624.896 411.063 633.548C395.285 631.367 380.041 628.82 365.56 625.958V625.954ZM340.245 211.318C343.937 186.003 352.199 167.908 362.959 161.679C367.427 159.092 373.355 157.784 380.57 157.784C396.352 157.784 416.769 163.976 439.606 175.69C464.36 188.401 491.201 207.308 517.23 230.41C518.843 231.842 520.494 233.33 522.181 234.875C499.286 260.178 476.724 288.294 455.035 318.563C418.082 322.171 382.556 327.559 349.295 334.599C348.093 329.335 346.965 324.041 345.931 318.813L345.832 318.272C337.903 277.777 335.97 240.775 340.245 211.318V211.318ZM344.885 509.414C329.255 543.857 315.972 577.955 305.351 610.881C301.659 609.733 298.012 608.536 294.418 607.314C252.165 592.877 216.971 574.24 192.649 553.423C174.037 537.493 162.928 520.69 162.928 508.471C162.928 495.928 174.041 479.768 193.424 464.105C215.987 445.871 248.095 429.207 286.214 415.926C292.691 413.679 299.288 411.526 305.905 409.513C316.378 441.959 329.485 475.524 344.881 509.41L344.885 509.414ZM344.934 704.148C346.107 697.997 347.395 691.81 348.802 685.659C381.621 692.372 417.553 697.431 455.769 700.712C477.667 731.194 500.419 759.498 523.478 784.949C520.631 787.569 517.759 790.149 514.904 792.654C481.523 821.82 448 842.904 417.975 853.63L417.352 853.852C403.896 858.6 391.88 861.007 381.662 861.007C374.122 861.007 368.034 859.703 363.567 857.128C352.691 850.858 344.228 833.157 340.348 808.559C335.81 779.894 337.398 743.786 344.93 704.144L344.934 704.148Z" fill="#41E0FD"/>
<rect x="0.5" y="0.5" width="1073.67" height="1017" rx="98.5" stroke="black"/>
</g>
</svg>
