<svg width="691" height="518" viewBox="0 0 691 518" fill="none" xmlns="http://www.w3.org/2000/svg">
<g id="shopping-cart">
<path id="Rectangle 14" d="M261.253 11.2043C262.259 4.7551 267.813 0 274.34 0V0C282.185 0 288.311 6.78042 287.517 14.5851L286 29.5C284.395 45.2858 296.785 59 312.652 59H626.36C653.315 59 671.223 86.8989 660 111.406L535.89 382.406C529.864 395.563 516.721 404 502.249 404H243.217C220.51 404 203.16 383.735 206.659 361.299L261.253 11.2043Z" fill="#2B2B2B"/>
<g id="Ellipse 4">
<path id="Ellipse 3" d="M304.438 477.974C294.044 497.78 272.338 506.867 255.955 498.27C239.572 489.673 234.717 466.648 245.11 446.842C255.503 427.035 277.21 417.948 293.593 426.545C309.976 435.142 314.831 458.168 304.438 477.974Z" fill="#2B2B2B"/>
</g>
<g id="Ellipse 3_2">
<path id="Ellipse 3_3" d="M456.164 478.066C445.77 497.872 424.064 506.959 407.681 498.362C391.298 489.765 386.443 466.74 396.836 446.934C407.229 427.128 428.936 418.041 445.319 426.638C461.702 435.235 466.557 458.26 456.164 478.066Z" fill="#2B2B2B"/>
</g>
<g id="imadev" filter="url(#filter0_d)">
<path id="Polygon 1 (Stroke)" fill-rule="evenodd" clip-rule="evenodd" d="M612.954 83.7165C614.63 83.2841 616.408 83.7937 617.6 85.0479L628.259 96.2614L627.561 96.9242L628.259 96.2614C629.422 97.485 629.851 99.2327 629.385 100.856L625.037 116.031C624.572 117.653 623.282 118.909 621.647 119.331L621.647 119.331L606.667 123.196C604.992 123.629 603.214 123.119 602.022 121.865L591.363 110.652C590.2 109.428 589.771 107.68 590.236 106.057L594.585 90.8824C595.05 89.2596 596.339 88.0043 597.974 87.5825C597.974 87.5825 597.974 87.5825 597.974 87.5825L612.954 83.7165ZM616.15 86.4257C615.459 85.6979 614.426 85.4021 613.454 85.653L613.204 84.6847L613.454 85.653L598.474 89.519L598.474 89.519C597.525 89.7638 596.777 90.4922 596.508 91.4334L592.159 106.608C591.889 107.55 592.138 108.564 592.813 109.274L603.471 120.487L602.746 121.176L603.471 120.487C604.163 121.215 605.195 121.511 606.168 121.26L606.418 122.228L606.168 121.26L621.148 117.394C621.148 117.394 621.148 117.394 621.148 117.394C622.096 117.149 622.844 116.421 623.114 115.48L627.463 100.305C627.733 99.3633 627.484 98.3494 626.809 97.6392C626.809 97.6392 626.809 97.6392 626.809 97.6392L616.15 86.4258L616.875 85.7368L616.15 86.4257Z" fill="white"/>
<path id="DEV" d="M599.123 111.646V110.979L599.986 110.831V104.76L599.123 104.612V103.94H602.141C602.822 103.94 603.415 104.102 603.92 104.427C604.428 104.751 604.824 105.198 605.106 105.766C605.388 106.334 605.53 106.983 605.53 107.714V107.878C605.53 108.59 605.394 109.233 605.122 109.804C604.85 110.372 604.463 110.822 603.962 111.154C603.464 111.482 602.875 111.646 602.194 111.646H599.123ZM601.029 110.831H602.141C602.628 110.831 603.046 110.699 603.396 110.434C603.745 110.166 604.013 109.81 604.2 109.365C604.391 108.917 604.486 108.421 604.486 107.878V107.703C604.486 107.142 604.391 106.641 604.2 106.2C604.013 105.755 603.745 105.404 603.396 105.146C603.046 104.889 602.628 104.76 602.141 104.76H601.029V110.831ZM606.303 111.646V110.979L607.166 110.831V104.76L606.303 104.612V103.94H612.011V105.792H611.174L611.057 104.744H608.209V107.253H611.052V108.073H608.209V110.863H611.227L611.343 109.799H612.175V111.646H606.303ZM616.331 111.646L613.747 104.697L613.133 104.612V103.94H615.569V104.612L614.865 104.723L616.591 109.624L616.771 110.233H616.803L616.993 109.624L618.783 104.718L617.999 104.612V103.94H620.43V104.612L619.81 104.697L617.226 111.646H616.331Z" fill="white"/>
<path id="I&#195;&#162;&#194;&#128;&#194;&#153;MA" d="M599.899 102.036V101.48L600.619 101.357V96.2974L599.899 96.1739V95.6138H602.207V96.1739L601.488 96.2974V101.357L602.207 101.48V102.036H599.899ZM603.262 97.656L602.768 97.3296C602.906 97.1208 603.01 96.9076 603.081 96.69C603.151 96.4694 603.187 96.2327 603.187 95.9799V95.155H604.056V95.9666C604.056 96.2607 603.984 96.565 603.84 96.8797C603.699 97.1943 603.506 97.4531 603.262 97.656ZM604.828 102.036V101.48L605.547 101.357V96.2974L604.828 96.1739V95.6138H606.708L608.777 100.488H608.804L610.807 95.6138H612.744V96.1739L612.025 96.2974V101.357L612.744 101.48V102.036H610.436V101.48L611.195 101.357V96.8003L611.173 96.7958L609.086 101.807H608.508L606.35 96.8047L606.328 96.8091L606.359 99.4953V101.357L607.136 101.48V102.036H604.828ZM613.468 102.036V101.48L613.944 101.414L616.19 95.6138H616.936L619.142 101.414L619.614 101.48V102.036H617.77V101.48L618.255 101.396L617.832 100.214H615.259L614.822 101.396L615.308 101.48V102.036H613.468ZM615.528 99.4864H617.567L616.623 96.8752L616.57 96.7297H616.543L616.49 96.8752L615.528 99.4864Z" fill="white"/>
</g>
<g id="Rectangle 16">
<path id="Rectangle 15" d="M16.1819 107.243C17.285 104.669 19.8157 103 22.6159 103H148.544C153.528 103 156.915 108.06 155.016 112.667V112.667C153.936 115.289 151.38 117 148.544 117H22.6159C17.5905 117 14.2023 111.862 16.1819 107.243V107.243Z" fill="#2B2B2B"/>
</g>
<g id="Rectangle 17">
<path id="Rectangle 15_2" d="M4.18192 291.243C5.28498 288.669 7.81574 287 10.6159 287H136.544C141.528 287 144.915 292.06 143.016 296.667V296.667C141.936 299.289 139.38 301 136.544 301H10.6159C5.59052 301 2.20232 295.862 4.18192 291.243V291.243Z" fill="#2B2B2B"/>
</g>
<g id="Rectangle 15_3">
<path id="Rectangle 15_4" d="M51.1819 206.243C52.285 203.669 54.8157 202 57.6159 202H183.544C188.528 202 191.915 207.06 190.016 211.667V211.667C188.936 214.289 186.38 216 183.544 216H57.6159C52.5905 216 49.2023 210.862 51.1819 206.243V206.243Z" fill="#2B2B2B"/>
</g>
</g>
<defs>
<filter id="filter0_d" x="562.763" y="54.7632" width="128.096" height="131.387" filterUnits="userSpaceOnUse" color-interpolation-filters="sRGB">
<feFlood flood-opacity="0" result="BackgroundImageFix"/>
<feColorMatrix in="SourceAlpha" type="matrix" values="0 0 0 0 0 0 0 0 0 0 0 0 0 0 0 0 0 0 127 0"/>
<feOffset dx="17" dy="17"/>
<feGaussianBlur stdDeviation="20.5"/>
<feColorMatrix type="matrix" values="0 0 0 0 0 0 0 0 0 0 0 0 0 0 0 0 0 0 0.83 0"/>
<feBlend mode="normal" in2="BackgroundImageFix" result="effect1_dropShadow"/>
<feBlend mode="normal" in="SourceGraphic" in2="effect1_dropShadow" result="shape"/>
</filter>
</defs>
</svg>
