<svg width="1037" height="491" viewBox="0 0 1037 491" fill="none" xmlns="http://www.w3.org/2000/svg">
<g id="SQLite 1">
<path id="SQLite" d="M400.653 242.556C387.556 242.556 376.907 246.437 368.743 254.195C360.579 261.96 356.438 272.138 356.438 284.61C356.438 291.073 357.466 296.966 359.493 302.366C361.519 307.777 364.673 312.79 368.913 317.319C373.153 321.852 381.639 328.01 394.288 335.84C409.808 345.325 419.965 353.023 424.84 359.033C429.718 365.039 432.138 371.333 432.138 377.894C432.138 386.679 429.249 393.692 423.312 398.964C417.365 404.238 409.411 406.865 399.55 406.865C389.148 406.865 380.088 403.194 372.308 395.905C364.527 388.606 360.599 378.951 360.511 366.85H355.674V410.773H360.511C361.988 406.614 364.031 404.486 366.706 404.486C367.993 404.486 371.007 405.374 375.702 407.035C387.125 411.104 396.505 413.067 403.878 413.067C416.584 413.067 427.43 408.612 436.466 399.558C445.489 390.509 450.045 379.593 450.045 366.85C450.045 356.968 447.037 348.176 441.134 340.512C435.231 332.84 423.75 323.915 406.593 313.666C391.83 304.786 382.247 297.554 377.824 291.916C373.394 286.287 371.119 280.059 371.119 273.226C371.119 265.834 373.832 259.897 379.182 255.469C384.532 251.038 391.542 248.843 400.313 248.843C410.185 248.843 418.414 251.775 424.925 257.678C431.429 263.591 435.19 271.785 436.297 282.316H441.134V244.255H436.636C436.086 246.195 435.577 247.436 435.109 247.993C434.654 248.547 433.778 248.843 432.478 248.843C430.913 248.843 428.122 248.183 424.161 246.889C415.674 244.027 407.85 242.556 400.653 242.556ZM558.758 242.556C542.8 242.556 528.312 246.321 515.222 253.855C502.112 261.376 491.735 271.819 484.076 285.12C476.421 298.42 472.619 312.545 472.619 327.599C472.619 347.823 479.232 365.841 492.563 381.632C505.9 397.414 521.882 407.249 540.427 411.028C544.667 413.239 550.733 418.949 558.674 428.189C567.622 438.618 575.192 446.139 581.418 450.618C587.637 455.1 594.351 458.384 601.446 460.558C608.548 462.724 616.226 463.787 624.53 463.787C634.585 463.787 643.587 462.037 651.517 458.434L649.735 454.017C645.132 455.679 640.223 456.48 635.053 456.48C628.036 456.48 620.945 454.164 613.837 449.514C606.738 444.852 597.861 435.958 587.273 422.837C582.297 416.55 578.862 412.584 576.92 411.028C597.21 407.061 613.894 397.217 626.906 381.462C639.914 365.714 646.425 347.742 646.425 327.599C646.425 303.682 637.925 283.581 621.05 267.194C604.162 250.804 583.393 242.556 558.758 242.556ZM657.458 242.556L657.712 247.738C668.337 247.738 674.288 250.871 675.619 257.168C676.115 259.422 676.342 263.582 676.383 269.572L676.298 384.181C676.21 392.741 674.991 398.206 672.649 400.578C670.303 402.933 666.338 404.408 660.598 404.996L660.343 410.178H766.256L768.972 384.181H764.135C762.753 391.263 759.586 396.336 754.545 399.219C749.49 402.122 740.552 403.551 727.642 403.551H717.628C706.011 403.551 699.29 399.347 697.515 390.893C697.148 389.22 697.022 387.427 697.005 385.455L697.43 269.572C697.427 261.026 698.506 255.299 700.74 252.496C702.997 249.702 707.067 248.139 712.96 247.738L712.706 242.556H657.458H657.458ZM560.456 248.843C578.454 248.843 593.15 255.939 604.501 270.252C615.85 284.57 621.474 304.194 621.474 329.043C621.474 352.59 615.768 371.444 604.332 385.625C592.895 399.802 577.673 406.865 558.758 406.865C540.587 406.865 525.851 399.582 514.543 384.946C503.246 370.309 497.655 351.306 497.655 327.939C497.655 303.926 503.314 284.704 514.713 270.337C526.105 255.985 541.361 248.843 560.456 248.843ZM804.021 273.48C801.438 273.48 799.469 274.354 797.996 276.114C796.489 277.868 796.027 279.992 796.553 282.571C797.062 285.073 798.471 287.266 800.712 289.113C802.939 290.958 805.342 291.916 807.925 291.916C810.424 291.916 812.328 290.958 813.696 289.113C815.064 287.266 815.482 285.073 814.969 282.571C814.443 279.992 813.082 277.868 810.98 276.114C808.855 274.354 806.52 273.48 804.021 273.48ZM873.866 291.067C869.477 307.971 859.962 317.118 845.351 318.593L845.521 323.436H862.579L862.24 380.698C862.267 390.488 862.566 397.006 863.258 400.323C864.938 408.265 870.119 412.302 878.789 412.302C891.332 412.302 904.489 404.653 918.251 389.363L914.093 385.795C904.157 395.864 895.371 400.918 887.699 400.918C882.984 400.918 880.062 398.203 878.958 392.847C878.656 391.546 878.534 390.026 878.534 388.259L878.704 323.436H904.758L904.503 315.705H878.789V291.067H873.866H873.866ZM974.602 312.646C960.029 312.646 948.175 319.728 938.959 333.801C929.79 347.897 926.952 363.515 930.557 380.698C932.678 390.763 936.905 398.563 943.372 404.061C949.828 409.557 958.02 412.302 967.813 412.302C976.931 412.302 989.627 409.991 994.97 405.336C1000.33 400.683 1005.26 393.145 1009.82 382.822L1006.17 378.999C998.901 392.391 984.226 399.134 973.16 399.134C957.945 399.134 948.627 390.777 945.154 374.156C944.702 372.034 944.366 369.755 944.135 367.359C962.236 364.49 975.953 359.41 985.211 352.067C994.461 344.719 1003.75 336.931 1002.01 328.703C1000.98 323.814 998.446 319.97 994.546 317.064C990.595 314.159 980.336 312.646 974.602 312.646ZM815.309 313.241L783.908 320.462V326.07L794.771 324.71C800.033 324.71 803.129 327.096 804.106 331.847C804.436 333.437 804.643 335.67 804.7 338.473L804.361 389.873C804.273 396.986 803.485 401.121 801.9 402.362C800.301 403.606 796.085 404.231 789.255 404.231L789.085 409.074H838.901L838.817 404.231C831.895 404.231 827.407 403.684 825.408 402.617C823.442 401.556 822.088 399.626 821.504 396.67C821.053 394.539 820.856 390.869 820.825 385.795L820.995 313.241H815.309H815.309ZM966.625 322.756C969.656 322.756 972.586 323.928 975.536 326.24C978.445 328.543 980.217 331.104 980.798 333.886C983.639 347.551 971.537 356.998 944.305 362.262C943.528 352.298 945.252 343.252 949.652 335.075C954.017 326.906 959.703 322.756 966.625 322.756Z" fill="#003B57"/>
<path id="solid background" d="M330.317 46.3159H60.0866C41.9755 46.3159 27.1572 61.153 27.1572 79.2831V377.62C27.1572 395.749 41.9755 410.583 60.0866 410.583H238.067C236.047 321.93 266.288 149.881 330.317 46.3159Z" fill="#0F80CC"/>
<path id="gradient background" d="M320.499 55.9331H60.0865C47.2266 55.9331 36.7616 66.4068 36.7616 79.283V355.853C95.7395 333.193 184.258 313.641 245.463 314.529C257.762 250.148 293.91 123.976 320.499 55.9331V55.9331Z" fill="url(#paint0_linear)"/>
<path id="feather" d="M393.348 36.5523C374.841 20.0296 352.433 26.6665 330.317 46.3157C327.034 49.2348 323.758 52.4734 320.499 55.9329C282.666 96.1114 247.548 170.535 236.638 227.372C240.888 236 244.208 247.011 246.394 255.422C246.954 257.58 247.46 259.605 247.864 261.328C248.825 265.406 249.341 268.05 249.341 268.05C249.341 268.05 249.001 266.765 247.609 262.725C247.345 261.95 247.049 261.104 246.7 260.108C246.55 259.697 246.343 259.197 246.116 258.664C243.648 252.92 236.821 240.799 233.817 235.521C231.247 243.109 228.976 250.209 227.075 256.631C235.749 272.518 241.034 299.743 241.034 299.743C241.034 299.743 240.576 297.979 238.396 291.821C236.461 286.374 226.824 269.47 224.541 265.518C220.636 279.95 219.084 289.694 220.484 292.066C223.2 296.663 225.788 304.595 228.06 313.367C233.192 333.128 236.76 357.184 236.76 357.184C236.76 357.184 236.876 358.778 237.069 361.232C236.356 377.826 236.784 395.032 238.067 410.583C239.768 431.17 242.969 448.854 247.049 458.319L249.819 456.807C243.828 438.16 241.394 413.723 242.46 385.54C244.072 342.463 253.974 290.513 272.272 236.367C303.183 154.631 346.071 89.0496 385.323 57.7306C349.547 90.0759 301.126 194.775 286.631 233.547C270.401 276.964 258.9 317.707 251.968 356.742C263.927 320.147 302.596 304.416 302.596 304.416C302.596 304.416 321.562 281 343.725 247.548C330.449 250.579 308.649 255.768 301.347 258.84C290.575 263.364 287.673 264.906 287.673 264.906C287.673 264.906 322.563 243.636 352.497 234.005C393.664 169.097 438.514 76.887 393.348 36.5523" fill="#003B57"/>
</g>
<defs>
<linearGradient id="paint0_linear" x1="200.369" y1="62.0708" x2="200.369" y2="339.174" gradientUnits="userSpaceOnUse">
<stop stop-color="#97D9F6"/>
<stop offset="0.920245" stop-color="#0F80CC"/>
<stop offset="1" stop-color="#0F80CC"/>
</linearGradient>
</defs>
</svg>
