<svg width="251" height="176" viewBox="0 0 251 176" fill="none" xmlns="http://www.w3.org/2000/svg">
<path id="youtube" d="M100.577 125.357L165.235 87.9817L100.577 50.6067V125.357ZM244.595 27.8079C246.215 33.6634 247.336 41.5121 248.083 51.4788C248.955 61.4454 250.077 80.5067 250.077 87.9817C250.077 115.265 248.083 135.323 244.595 148.155C241.48 159.368 234.255 166.594 223.042 169.708C217.187 171.328 210.438 173.234 193.993 173.982C177.797 174.854 155.197 175.19 141.493 175.19H125.493C73.2929 175.19 40.7766 173.197 27.9446 169.708C16.7321 166.594 9.50622 159.368 6.39164 148.155C4.77206 142.3 3.65081 134.451 2.90331 124.485C2.03122 114.518 0.909973 95.4567 0.909973 87.9817C0.909973 60.6979 2.90331 40.64 6.39164 27.8079C9.50622 16.5954 16.7321 9.3696 27.9446 6.25501C33.8 4.63543 44.5141 3.51418 60.9591 2.76668C60.9591 2.76668 111.789 0.773346 125.493 0.773346C177.493 0.773346 210.21 2.76668 223.042 6.25501C234.255 9.3696 241.48 16.5954 244.595 27.8079Z" fill="black"/>
</svg>
